<svg width="28" height="28" viewBox="0 0 20 20" fill="none" xmlns="http://www.w3.org/2000/svg">
<path d="M17.9979 8.92772C18.023 7.92748 17.8189 6.93465 17.401 6.0242C16.9831 5.11375 16.2986 4.30947 15.5219 3.6721C14.039 2.51812 12.2423 1.83134 10.3629 1.7002C9.84016 1.17047 9.2181 0.747394 8.53178 0.454787C7.72973 0.159692 6.87845 -0.0191986 6.02337 0.00164317C4.82351 0.00164317 3.9713 0.492793 3.65775 0.90793C3.62405 0.945185 3.59823 0.988787 3.58184 1.03615C3.56544 1.0835 3.5588 1.13365 3.56231 1.18361C3.56582 1.23356 3.57941 1.28231 3.60227 1.32695C3.62513 1.37159 3.65679 1.41121 3.69538 1.44346C4.17571 1.75488 4.58007 2.22177 4.84528 2.72687V2.76423H4.80766C3.32918 3.54802 2.13388 4.64357 1.27952 6.07532C0.425157 7.50708 -0.0172339 9.14416 0.000513744 10.8083C-0.00990982 12.0714 0.225748 13.3246 0.694508 14.4989C1.13876 15.5927 1.71869 16.5824 2.57012 17.4048C3.43057 18.231 4.45207 18.8738 5.57186 19.2937C6.77428 19.7424 8.04883 20.0121 9.33331 19.9996C11.0056 19.9996 11.4576 19.3218 11.4895 19.2838C11.5214 19.2458 11.5597 19.0367 11.2917 19.0557C11.0238 19.0748 10.9855 19.0811 10.59 19.0304C10.1945 18.9797 8.60447 18.6187 8.55505 16.7753C8.54475 16.3911 8.60792 16.0496 8.75169 15.6926C8.89547 15.3357 9.11115 15.0117 9.38551 14.7405C9.41627 14.7117 9.43846 14.6751 9.44964 14.6347C9.46083 14.5942 9.46058 14.5515 9.44891 14.5112C9.43725 14.4709 9.41463 14.4345 9.38353 14.4061C9.35244 14.3778 9.31406 14.3584 9.27263 14.3503C9.11574 14.319 8.95605 14.3037 8.79603 14.3046C8.17105 14.329 7.7475 14.5821 7.3111 15.027C6.90283 15.4433 6.66644 16.2179 6.66042 16.6803C6.6544 17.1427 6.69401 17.6121 7.01077 18.1289C6.40211 17.6945 5.86302 16.3554 5.71629 14.9849C5.56957 13.6144 6.08828 12.2888 6.8199 11.5747C7.56264 10.8651 8.52595 10.4472 9.55659 10.4599C10.1534 10.4334 10.7436 10.5217 11.2914 10.7584C11.8392 10.9951 12.3635 11.353 12.7507 11.8046C13.3187 12.5106 13.711 13.3804 13.8382 14.2751C13.9218 14.8397 14.043 15.3918 14.482 15.3918C14.5872 15.3841 14.6896 15.355 14.7831 15.3065C14.8766 15.2579 14.9591 15.1909 15.0255 15.1095C15.1962 14.907 15.3248 14.6728 15.4037 14.4205C15.4826 14.1682 15.5104 13.9029 15.4853 13.64C15.4853 13.586 15.4853 13.5279 15.4853 13.4573V13.4282H15.5104C16.0266 13.134 16.4854 12.7248 16.865 12.2696C17.6274 11.323 18.0286 10.1394 17.9979 8.92772ZM15.4686 11.1238C15.3096 11.3132 15.1286 11.5085 14.9293 11.6556L14.8875 11.6847L14.8624 11.6431C14.5598 11.1491 14.1291 10.6716 13.7075 10.2728C12.5825 9.23353 11.1009 8.65903 9.56441 8.66619C8.81288 8.65273 8.06631 8.78958 7.36916 9.06859C6.672 9.34761 6.03852 9.76308 5.50644 10.2903C4.97436 10.8175 4.64386 11.4456 4.36134 12.1372C4.07882 12.8289 3.93936 13.5699 3.95126 14.3162C3.96997 15.4894 4.06076 15.7726 4.34425 16.5833C4.21883 16.4754 1.79256 14.7653 1.78985 10.8083C1.78141 9.33124 2.21821 7.88545 3.04405 6.65693C3.84934 5.47542 4.96055 4.55452 6.28784 4.00836C6.59405 3.88415 6.90664 3.77607 7.22431 3.68455C6.98031 2.94165 6.5701 2.26325 6.02445 1.7002C6.72453 1.5902 7.37794 1.69599 8.01559 2.0033C8.65324 2.31061 9.23171 2.83 9.57782 3.4442L9.93736 3.46911C11.5642 3.51811 13.0841 4.0442 14.3806 5.02129C14.9556 5.49172 15.4776 6.08728 15.7835 6.76182C16.0894 7.43636 16.2349 8.17178 16.2086 8.91112C16.2367 9.71286 15.9741 10.498 15.4686 11.1238Z" fill="url(#paint0_radial_3198_14)"/>
<defs>
<radialGradient id="paint0_radial_3198_14" cx="0" cy="0" r="1" gradientUnits="userSpaceOnUse" gradientTransform="translate(11.084) rotate(105.193) scale(21.2647 18.8791)">
<stop offset="0.43743" stop-color="#ECBD70"/>
<stop offset="1" stop-color="#8E6326"/>
</radialGradient>
</defs>
</svg>
