<svg width="16" height="16" viewBox="0 0 16 16" fill="none" xmlns="http://www.w3.org/2000/svg">
<g opacity="0.3">
<mask id="path-1-inside-1" fill="white">
<path fill-rule="evenodd" clip-rule="evenodd" d="M3 3H13V13H3L3 3ZM2 3C2 2.44772 2.44772 2 3 2H13C13.5523 2 14 2.44772 14 3V13C14 13.5523 13.5523 14 13 14H3C2.44772 14 2 13.5523 2 13V3ZM5.37964 6.17461C5.19993 5.96495 4.88428 5.94067 4.67461 6.12038C4.46495 6.30009 4.44067 6.61574 4.62038 6.8254L7.62038 10.3254C7.71537 10.4362 7.85405 10.5 8.00001 10.5C8.14597 10.5 8.28465 10.4362 8.37964 10.3254L11.3796 6.8254C11.5593 6.61574 11.5351 6.30009 11.3254 6.12038C11.1157 5.94067 10.8001 5.96495 10.6204 6.17461L8.00001 9.23171L5.37964 6.17461Z"/>
</mask>
<path d="M13 3H14V2H13V3ZM3 3V2H2L2 3H3ZM13 13V14H14V13H13ZM3 13H2L2 14H3V13ZM4.67461 6.12038L5.3254 6.87964L5.3254 6.87964L4.67461 6.12038ZM5.37964 6.17461L4.62038 6.8254H4.62038L5.37964 6.17461ZM4.62038 6.8254L5.37964 6.17461V6.17461L4.62038 6.8254ZM7.62038 10.3254L6.86112 10.9762L6.86113 10.9762L7.62038 10.3254ZM8.37964 10.3254L9.13889 10.9762L9.13889 10.9762L8.37964 10.3254ZM11.3796 6.8254L10.6204 6.17461L10.6204 6.17461L11.3796 6.8254ZM11.3254 6.12038L11.9762 5.36112L11.9762 5.36112L11.3254 6.12038ZM10.6204 6.17461L9.86112 5.52382L9.86112 5.52382L10.6204 6.17461ZM8.00001 9.23171L7.24075 9.8825L8.00001 10.7683L8.75927 9.8825L8.00001 9.23171ZM13 2H3V4H13V2ZM14 13V3H12V13H14ZM3 14H13V12H3V14ZM2 3L2 13H4L4 3H2ZM3 1C1.89543 1 1 1.89543 1 3H3V3V1ZM13 1H3V3H13V1ZM15 3C15 1.89543 14.1046 1 13 1V3H15ZM15 13V3H13V13H15ZM13 15C14.1046 15 15 14.1046 15 13H13V15ZM3 15H13V13H3V15ZM1 13C1 14.1046 1.89543 15 3 15V13H3H1ZM1 3V13H3V3H1ZM5.3254 6.87964C5.11574 7.05935 4.80009 7.03507 4.62038 6.8254L6.13889 5.52382C5.59976 4.89483 4.65281 4.82199 4.02382 5.36112L5.3254 6.87964ZM5.37964 6.17461C5.55935 6.38428 5.53507 6.69993 5.3254 6.87964L4.02382 5.36112C3.39483 5.90026 3.32199 6.84721 3.86112 7.4762L5.37964 6.17461ZM8.37964 9.67461L5.37964 6.17461L3.86112 7.4762L6.86112 10.9762L8.37964 9.67461ZM8.00001 9.50001C8.14597 9.50001 8.28465 9.56379 8.37963 9.67461L6.86113 10.9762C7.1461 11.3087 7.56212 11.5 8.00001 11.5V9.50001ZM7.62038 9.67461C7.71537 9.56379 7.85404 9.50001 8.00001 9.50001V11.5C8.4379 11.5 8.85392 11.3087 9.13889 10.9762L7.62038 9.67461ZM10.6204 6.17461L7.62038 9.67461L9.13889 10.9762L12.1389 7.4762L10.6204 6.17461ZM10.6746 6.87964C10.465 6.69993 10.4407 6.38428 10.6204 6.17461L12.1389 7.4762C12.678 6.84721 12.6052 5.90026 11.9762 5.36112L10.6746 6.87964ZM11.3796 6.82541C11.1999 7.03507 10.8843 7.05935 10.6746 6.87964L11.9762 5.36112C11.3472 4.82199 10.4003 4.89483 9.86112 5.52382L11.3796 6.82541ZM8.75927 9.8825L11.3796 6.8254L9.86112 5.52382L7.24075 8.58092L8.75927 9.8825ZM4.62038 6.8254L7.24075 9.8825L8.75927 8.58092L6.13889 5.52382L4.62038 6.8254Z" fill="#212121" mask="url(#path-1-inside-1)"/>
</g>
</svg>
