<svg width="160" height="160" viewBox="0 0 160 160" fill="none" xmlns="http://www.w3.org/2000/svg">
<rect width="160" height="160" fill="#F5F5F5"/>
<path d="M40.3496 24V15.5449H41.3926V22.1836H41.4922L46.0742 15.5449H47.0996V24H46.0566V17.3848H45.9629L41.375 24H40.3496ZM51.3887 24.1172C50.041 24.1172 49.0156 23.4492 48.8867 22.4297L48.8809 22.3828H49.918L49.9297 22.4297C50.0586 22.9453 50.6211 23.2734 51.3887 23.2734C52.3203 23.2734 52.8711 22.8223 52.8711 22.1953V22.1836C52.8711 21.498 52.3555 21.1816 51.3887 21.1816H50.4043V20.3379H51.3887C52.1973 20.3379 52.6484 20.0156 52.6484 19.3594V19.3477C52.6484 18.8086 52.2324 18.4102 51.4238 18.4102C50.7031 18.4102 50.1582 18.7324 50.0586 19.2363L50.0527 19.2656H49.0566L49.0625 19.2246C49.209 18.2109 50.1348 17.5664 51.4238 17.5664C52.8359 17.5664 53.6445 18.2637 53.6445 19.2715V19.2832C53.6445 19.9219 53.2285 20.502 52.6016 20.6484V20.7422C53.4336 20.9238 53.873 21.4277 53.873 22.1309V22.1426C53.873 23.3145 52.8594 24.1172 51.3887 24.1172ZM58.1094 24.1113C56.3105 24.1113 55.1973 22.8691 55.1973 20.8477V20.8359C55.1973 18.8086 56.3105 17.5723 58.1094 17.5723C59.9082 17.5723 61.0215 18.8086 61.0215 20.8359V20.8477C61.0215 22.8691 59.9082 24.1113 58.1094 24.1113ZM58.1094 23.209C59.3047 23.209 59.9785 22.3359 59.9785 20.8477V20.8359C59.9785 19.3418 59.3047 18.4746 58.1094 18.4746C56.9141 18.4746 56.2402 19.3418 56.2402 20.8359V20.8477C56.2402 22.3359 56.9141 23.209 58.1094 23.209ZM65.3457 24.1172C63.4121 24.1172 62.4043 22.7988 62.4043 20.2676V20.2559C62.4043 16.9043 63.3359 15.4746 65.5918 15.3691L66.2246 15.3398C66.7285 15.3164 67.3262 15.2227 67.8711 15V15.9023C67.6719 16.0898 67.0039 16.2422 66.2715 16.2773L65.627 16.3066C64.1562 16.3711 63.5176 17.0566 63.2832 18.7793L63.2656 18.9082H63.3594C63.7871 18.1523 64.543 17.7422 65.498 17.7422C67.1973 17.7422 68.2871 18.9551 68.2871 20.8594V20.8711C68.2871 22.875 67.168 24.1172 65.3457 24.1172ZM65.3457 23.2148C66.5527 23.2148 67.2441 22.3535 67.2441 20.8711V20.8594C67.2441 19.4473 66.5527 18.6445 65.3457 18.6445C64.1387 18.6445 63.4473 19.4473 63.4473 20.8594V20.8711C63.4473 22.3535 64.1387 23.2148 65.3457 23.2148ZM69.9863 26.1094V17.6836H71.0059V18.6914H71.0996C71.4863 17.9883 72.1895 17.5723 73.0684 17.5723C74.668 17.5723 75.7168 18.8672 75.7168 20.8359V20.8477C75.7168 22.8281 74.6738 24.1113 73.0684 24.1113C72.2012 24.1113 71.4453 23.6777 71.0996 23.0039H71.0059V26.1094H69.9863ZM72.834 23.209C73.9883 23.209 74.6738 22.3184 74.6738 20.8477V20.8359C74.6738 19.3652 73.9883 18.4746 72.834 18.4746C71.6855 18.4746 70.9824 19.377 70.9824 20.8359V20.8477C70.9824 22.3066 71.6855 23.209 72.834 23.209ZM79.1621 24.1113C77.9609 24.1113 77.0527 23.3848 77.0527 22.2363V22.2246C77.0527 21.0996 77.8848 20.4492 79.3555 20.3613L81.166 20.25V19.6758C81.166 18.8965 80.6914 18.4746 79.748 18.4746C78.9922 18.4746 78.4941 18.7559 78.3301 19.248L78.3242 19.2656H77.3047L77.3105 19.2305C77.4746 18.2402 78.4355 17.5723 79.7832 17.5723C81.3242 17.5723 82.1855 18.3633 82.1855 19.6758V24H81.166V23.0684H81.0723C80.6738 23.7422 80.0117 24.1113 79.1621 24.1113ZM78.0957 22.2129C78.0957 22.8516 78.6406 23.2266 79.373 23.2266C80.4102 23.2266 81.166 22.5469 81.166 21.6445V21.0703L79.4785 21.1758C78.5176 21.2344 78.0957 21.5742 78.0957 22.2012V22.2129ZM84.7227 24H83.4629L86.1875 20.6719L83.5566 17.6836H84.7812L86.9902 20.3438H87.3652V17.6836H88.3496V20.3438H88.7246L90.9336 17.6836H92.1406L89.5273 20.6484L92.2695 24H90.9922L88.7246 21.1055H88.3496V24H87.3652V21.1055H86.9902L84.7227 24ZM95.9902 24.1113C94.1855 24.1113 93.0957 22.8457 93.0957 20.8652V20.8594C93.0957 18.9082 94.209 17.5723 95.9258 17.5723C97.6426 17.5723 98.6855 18.8496 98.6855 20.7363V21.1348H94.1387C94.168 22.4414 94.8887 23.2031 96.0137 23.2031C96.8691 23.2031 97.3965 22.7988 97.5664 22.418L97.5898 22.3652H98.6094L98.5977 22.4121C98.3809 23.2676 97.4785 24.1113 95.9902 24.1113ZM95.9199 18.4805C94.9824 18.4805 94.2676 19.1191 94.1562 20.3203H97.6484C97.543 19.0723 96.8516 18.4805 95.9199 18.4805ZM104.527 24V21.1406H101.398V24H100.379V17.6836H101.398V20.2969H104.527V17.6836H105.547V24H104.527ZM107.551 24V17.6836H108.57V22.3945H108.664L111.787 17.6836H112.807V24H111.787V19.2891H111.693L108.57 24H107.551ZM117.4 24.1113C115.596 24.1113 114.506 22.8457 114.506 20.8652V20.8594C114.506 18.9082 115.619 17.5723 117.336 17.5723C119.053 17.5723 120.096 18.8496 120.096 20.7363V21.1348H115.549C115.578 22.4414 116.299 23.2031 117.424 23.2031C118.279 23.2031 118.807 22.7988 118.977 22.418L119 22.3652H120.02L120.008 22.4121C119.791 23.2676 118.889 24.1113 117.4 24.1113ZM117.33 18.4805C116.393 18.4805 115.678 19.1191 115.566 20.3203H119.059C118.953 19.0723 118.262 18.4805 117.33 18.4805ZM34.1211 40V37.1406H30.9922V40H29.9727V33.6836H30.9922V36.2969H34.1211V33.6836H35.1406V40H34.1211ZM39.7285 40.1113C37.9238 40.1113 36.834 38.8457 36.834 36.8652V36.8594C36.834 34.9082 37.9473 33.5723 39.6641 33.5723C41.3809 33.5723 42.4238 34.8496 42.4238 36.7363V37.1348H37.877C37.9062 38.4414 38.627 39.2031 39.752 39.2031C40.6074 39.2031 41.1348 38.7988 41.3047 38.418L41.3281 38.3652H42.3477L42.3359 38.4121C42.1191 39.2676 41.2168 40.1113 39.7285 40.1113ZM39.6582 34.4805C38.7207 34.4805 38.0059 35.1191 37.8945 36.3203H41.3867C41.2812 35.0723 40.5898 34.4805 39.6582 34.4805ZM49.6426 40.1172C48.2949 40.1172 47.2695 39.4492 47.1406 38.4297L47.1348 38.3828H48.1719L48.1836 38.4297C48.3125 38.9453 48.875 39.2734 49.6426 39.2734C50.5742 39.2734 51.125 38.8223 51.125 38.1953V38.1836C51.125 37.498 50.6094 37.1816 49.6426 37.1816H48.6582V36.3379H49.6426C50.4512 36.3379 50.9023 36.0156 50.9023 35.3594V35.3477C50.9023 34.8086 50.4863 34.4102 49.6777 34.4102C48.957 34.4102 48.4121 34.7324 48.3125 35.2363L48.3066 35.2656H47.3105L47.3164 35.2246C47.4629 34.2109 48.3887 33.5664 49.6777 33.5664C51.0898 33.5664 51.8984 34.2637 51.8984 35.2715V35.2832C51.8984 35.9219 51.4824 36.502 50.8555 36.6484V36.7422C51.6875 36.9238 52.127 37.4277 52.127 38.1309V38.1426C52.127 39.3145 51.1133 40.1172 49.6426 40.1172ZM55.5605 40.1113C54.3594 40.1113 53.4512 39.3848 53.4512 38.2363V38.2246C53.4512 37.0996 54.2832 36.4492 55.7539 36.3613L57.5645 36.25V35.6758C57.5645 34.8965 57.0898 34.4746 56.1465 34.4746C55.3906 34.4746 54.8926 34.7559 54.7285 35.248L54.7227 35.2656H53.7031L53.709 35.2305C53.873 34.2402 54.834 33.5723 56.1816 33.5723C57.7227 33.5723 58.584 34.3633 58.584 35.6758V40H57.5645V39.0684H57.4707C57.0723 39.7422 56.4102 40.1113 55.5605 40.1113ZM54.4941 38.2129C54.4941 38.8516 55.0391 39.2266 55.7715 39.2266C56.8086 39.2266 57.5645 38.5469 57.5645 37.6445V37.0703L55.877 37.1758C54.916 37.2344 54.4941 37.5742 54.4941 38.2012V38.2129ZM64.6016 34.5273H61.5781V40H60.5586V33.6836H64.6016V34.5273ZM66.1426 42.1094V33.6836H67.1621V34.6914H67.2559C67.6426 33.9883 68.3457 33.5723 69.2246 33.5723C70.8242 33.5723 71.873 34.8672 71.873 36.8359V36.8477C71.873 38.8281 70.8301 40.1113 69.2246 40.1113C68.3574 40.1113 67.6016 39.6777 67.2559 39.0039H67.1621V42.1094H66.1426ZM68.9902 39.209C70.1445 39.209 70.8301 38.3184 70.8301 36.8477V36.8359C70.8301 35.3652 70.1445 34.4746 68.9902 34.4746C67.8418 34.4746 67.1387 35.377 67.1387 36.8359V36.8477C67.1387 38.3066 67.8418 39.209 68.9902 39.209ZM73.8887 42.2148C73.7539 42.2148 73.5781 42.2031 73.4375 42.1797V41.3418C73.5605 41.3652 73.7188 41.3711 73.8594 41.3711C74.4395 41.3711 74.791 41.1074 75.0195 40.3809L75.1367 40.0059L72.7988 33.6836H73.8887L75.623 38.8809H75.7168L77.4453 33.6836H78.5176L76.0508 40.3867C75.5293 41.8047 75.0078 42.2148 73.8887 42.2148ZM81.8926 40.1172C80.5449 40.1172 79.5195 39.4492 79.3906 38.4297L79.3848 38.3828H80.4219L80.4336 38.4297C80.5625 38.9453 81.125 39.2734 81.8926 39.2734C82.8242 39.2734 83.375 38.8223 83.375 38.1953V38.1836C83.375 37.498 82.8594 37.1816 81.8926 37.1816H80.9082V36.3379H81.8926C82.7012 36.3379 83.1523 36.0156 83.1523 35.3594V35.3477C83.1523 34.8086 82.7363 34.4102 81.9277 34.4102C81.207 34.4102 80.6621 34.7324 80.5625 35.2363L80.5566 35.2656H79.5605L79.5664 35.2246C79.7129 34.2109 80.6387 33.5664 81.9277 33.5664C83.3398 33.5664 84.1484 34.2637 84.1484 35.2715V35.2832C84.1484 35.9219 83.7324 36.502 83.1055 36.6484V36.7422C83.9375 36.9238 84.377 37.4277 84.377 38.1309V38.1426C84.377 39.3145 83.3633 40.1172 81.8926 40.1172ZM86.0703 40V33.6836H87.0898V38.3945H87.1836L90.3066 33.6836H91.3262V40H90.3066V35.2891H90.2129L87.0898 40H86.0703ZM94.8184 37.5273C94.6836 39.2676 94.1445 40.0586 93.0898 40.0586C92.873 40.0586 92.709 40.0234 92.627 39.9941V39.0742C92.6797 39.0918 92.8379 39.1152 92.9902 39.1152C93.5703 39.1152 93.8047 38.3828 93.8691 37.4453L94.1387 33.6836H98.2695V40H97.25V34.5273H95.0527L94.8184 37.5273ZM102.875 40.1113C101.076 40.1113 99.9629 38.8691 99.9629 36.8477V36.8359C99.9629 34.8086 101.076 33.5723 102.875 33.5723C104.674 33.5723 105.787 34.8086 105.787 36.8359V36.8477C105.787 38.8691 104.674 40.1113 102.875 40.1113ZM102.875 39.209C104.07 39.209 104.744 38.3359 104.744 36.8477V36.8359C104.744 35.3418 104.07 34.4746 102.875 34.4746C101.68 34.4746 101.006 35.3418 101.006 36.8359V36.8477C101.006 38.3359 101.68 39.209 102.875 39.209ZM110.07 40.1113C108.301 40.1113 107.17 38.8281 107.17 36.8242V36.8125C107.17 34.8496 108.295 33.5723 110.064 33.5723C111.6 33.5723 112.52 34.457 112.707 35.582L112.713 35.6172H111.699L111.693 35.5996C111.535 34.9785 110.973 34.4746 110.064 34.4746C108.928 34.4746 108.213 35.3887 108.213 36.8125V36.8242C108.213 38.2773 108.939 39.209 110.064 39.209C110.914 39.209 111.453 38.834 111.688 38.1309L111.699 38.0957L112.707 38.0898L112.695 38.1543C112.438 39.2969 111.588 40.1113 110.07 40.1113ZM114.312 40V33.6836H115.332V35.7109H116.568C118.016 35.7109 118.941 36.543 118.941 37.8496V37.8613C118.941 39.168 118.016 40 116.568 40H114.312ZM116.568 36.5547H115.332V39.1562H116.568C117.4 39.1562 117.922 38.6406 117.922 37.8613V37.8496C117.922 37.0645 117.395 36.5547 116.568 36.5547ZM124.666 35.5234C124.25 35.5234 123.904 35.1777 123.904 34.7617C123.904 34.3398 124.25 34 124.666 34C125.088 34 125.428 34.3398 125.428 34.7617C125.428 35.1777 125.088 35.5234 124.666 35.5234ZM124.666 40.0586C124.25 40.0586 123.904 39.7129 123.904 39.2969C123.904 38.875 124.25 38.5352 124.666 38.5352C125.088 38.5352 125.428 38.875 125.428 39.2969C125.428 39.7129 125.088 40.0586 124.666 40.0586ZM129.529 42.1094C128.387 40.5918 127.865 38.8223 127.865 36.6426C127.865 34.4688 128.381 32.6934 129.529 31.1758H130.385C129.535 32.2598 128.902 34.6094 128.902 36.6426C128.902 38.6934 129.535 41.0254 130.385 42.1094H129.529Z" fill="#9E9E9E"/>
<path d="M65.7345 80.8531C66.185 88.1873 72.3997 93.999 80 93.999C83.6259 93.999 86.9321 92.6789 89.4527 90.4995C90.2981 89.7686 91.5883 89.8474 92.3345 90.6756C93.0807 91.5037 93.0002 92.7676 92.1548 93.4985C88.9169 96.2981 84.6587 97.999 80 97.999C70.129 97.999 62.076 90.3745 61.6433 80.8095L58.9853 83.4132C58.188 84.1943 56.8953 84.1943 56.098 83.4132C55.3007 82.6322 55.3007 81.3659 56.098 80.5848L62.223 74.5848C63.0203 73.8038 64.313 73.8038 65.1103 74.5848L71.2353 80.5848C72.0327 81.3659 72.0327 82.6322 71.2353 83.4132C70.438 84.1943 69.1453 84.1943 68.348 83.4132L65.7345 80.8531Z" fill="#757575"/>
<path d="M94.8897 85.4132C95.687 86.1943 96.9797 86.1943 97.777 85.4132L103.902 79.4132C104.699 78.6322 104.699 77.3659 103.902 76.5848C103.105 75.8038 101.812 75.8038 101.015 76.5848L98.3568 79.1885C97.9241 69.6235 89.871 61.999 80.0001 61.999C75.3414 61.999 71.0832 63.7 67.8452 66.4995C66.9999 67.2305 66.9194 68.4944 67.6656 69.3225C68.4117 70.1506 69.7019 70.2294 70.5473 69.4985C73.0679 67.3192 76.3741 65.999 80.0001 65.999C87.6004 65.999 93.8151 71.8107 94.2656 79.145L91.652 76.5848C90.8547 75.8038 89.562 75.8038 88.7647 76.5848C87.9673 77.3659 87.9673 78.6322 88.7647 79.4132L94.8897 85.4132Z" fill="#757575"/>
<path d="M50.2871 128H49.2324V120.494H44.709V128H43.6543V119.545H50.2871V128ZM55.0273 128.111C53.2285 128.111 52.1152 126.869 52.1152 124.848V124.836C52.1152 122.809 53.2285 121.572 55.0273 121.572C56.8262 121.572 57.9395 122.809 57.9395 124.836V124.848C57.9395 126.869 56.8262 128.111 55.0273 128.111ZM55.0273 127.209C56.2227 127.209 56.8965 126.336 56.8965 124.848V124.836C56.8965 123.342 56.2227 122.475 55.0273 122.475C53.832 122.475 53.1582 123.342 53.1582 124.836V124.848C53.1582 126.336 53.832 127.209 55.0273 127.209ZM59.6328 128V121.684H64.7422V128H63.7227V122.527H60.6523V128H59.6328ZM66.752 130.109V121.684H67.7715V122.691H67.8652C68.252 121.988 68.9551 121.572 69.834 121.572C71.4336 121.572 72.4824 122.867 72.4824 124.836V124.848C72.4824 126.828 71.4395 128.111 69.834 128.111C68.9668 128.111 68.2109 127.678 67.8652 127.004H67.7715V130.109H66.752ZM69.5996 127.209C70.7539 127.209 71.4395 126.318 71.4395 124.848V124.836C71.4395 123.365 70.7539 122.475 69.5996 122.475C68.4512 122.475 67.748 123.377 67.748 124.836V124.848C67.748 126.307 68.4512 127.209 69.5996 127.209ZM76.7891 128.111C74.9902 128.111 73.877 126.869 73.877 124.848V124.836C73.877 122.809 74.9902 121.572 76.7891 121.572C78.5879 121.572 79.7012 122.809 79.7012 124.836V124.848C79.7012 126.869 78.5879 128.111 76.7891 128.111ZM76.7891 127.209C77.9844 127.209 78.6582 126.336 78.6582 124.848V124.836C78.6582 123.342 77.9844 122.475 76.7891 122.475C75.5938 122.475 74.9199 123.342 74.9199 124.836V124.848C74.9199 126.336 75.5938 127.209 76.7891 127.209ZM84.0254 128.117C82.0918 128.117 81.084 126.799 81.084 124.268V124.256C81.084 120.904 82.0156 119.475 84.2715 119.369L84.9043 119.34C85.4082 119.316 86.0059 119.223 86.5508 119V119.902C86.3516 120.09 85.6836 120.242 84.9512 120.277L84.3066 120.307C82.8359 120.371 82.1973 121.057 81.9629 122.779L81.9453 122.908H82.0391C82.4668 122.152 83.2227 121.742 84.1777 121.742C85.877 121.742 86.9668 122.955 86.9668 124.859V124.871C86.9668 126.875 85.8477 128.117 84.0254 128.117ZM84.0254 127.215C85.2324 127.215 85.9238 126.354 85.9238 124.871V124.859C85.9238 123.447 85.2324 122.645 84.0254 122.645C82.8184 122.645 82.127 123.447 82.127 124.859V124.871C82.127 126.354 82.8184 127.215 84.0254 127.215ZM88.9707 130.215C88.8359 130.215 88.6602 130.203 88.5195 130.18V129.342C88.6426 129.365 88.8008 129.371 88.9414 129.371C89.5215 129.371 89.873 129.107 90.1016 128.381L90.2188 128.006L87.8809 121.684H88.9707L90.7051 126.881H90.7988L92.5273 121.684H93.5996L91.1328 128.387C90.6113 129.805 90.0898 130.215 88.9707 130.215ZM97.6895 120.805C96.4824 120.805 95.6797 119.973 95.6797 118.883H96.5938C96.5938 119.521 97.0098 120.113 97.6895 120.113C98.3809 120.113 98.7852 119.521 98.7852 118.883H99.6992C99.6992 119.973 98.8965 120.805 97.6895 120.805ZM95.0586 128V121.684H96.0781V126.395H96.1719L99.2949 121.684H100.314V128H99.2949V123.289H99.2012L96.0781 128H95.0586ZM106.9 121.684V122.527H104.855V128H103.836V122.527H101.791V121.684H106.9ZM110.721 128.111C108.916 128.111 107.826 126.846 107.826 124.865V124.859C107.826 122.908 108.939 121.572 110.656 121.572C112.373 121.572 113.416 122.85 113.416 124.736V125.135H108.869C108.898 126.441 109.619 127.203 110.744 127.203C111.6 127.203 112.127 126.799 112.297 126.418L112.32 126.365H113.34L113.328 126.412C113.111 127.268 112.209 128.111 110.721 128.111ZM110.65 122.48C109.713 122.48 108.998 123.119 108.887 124.32H112.379C112.273 123.072 111.582 122.48 110.65 122.48ZM26.8379 144.111C25.0391 144.111 23.9258 142.869 23.9258 140.848V140.836C23.9258 138.809 25.0391 137.572 26.8379 137.572C28.6367 137.572 29.75 138.809 29.75 140.836V140.848C29.75 142.869 28.6367 144.111 26.8379 144.111ZM26.8379 143.209C28.0332 143.209 28.707 142.336 28.707 140.848V140.836C28.707 139.342 28.0332 138.475 26.8379 138.475C25.6426 138.475 24.9688 139.342 24.9688 140.836V140.848C24.9688 142.336 25.6426 143.209 26.8379 143.209ZM34.0742 144.117C32.1406 144.117 31.1328 142.799 31.1328 140.268V140.256C31.1328 136.904 32.0645 135.475 34.3203 135.369L34.9531 135.34C35.457 135.316 36.0547 135.223 36.5996 135V135.902C36.4004 136.09 35.7324 136.242 35 136.277L34.3555 136.307C32.8848 136.371 32.2461 137.057 32.0117 138.779L31.9941 138.908H32.0879C32.5156 138.152 33.2715 137.742 34.2266 137.742C35.9258 137.742 37.0156 138.955 37.0156 140.859V140.871C37.0156 142.875 35.8965 144.117 34.0742 144.117ZM34.0742 143.215C35.2812 143.215 35.9727 142.354 35.9727 140.871V140.859C35.9727 139.447 35.2812 138.645 34.0742 138.645C32.8672 138.645 32.1758 139.447 32.1758 140.859V140.871C32.1758 142.354 32.8672 143.215 34.0742 143.215ZM42.8574 144V141.141H39.7285V144H38.709V137.684H39.7285V140.297H42.8574V137.684H43.877V144H42.8574ZM48.4824 144.111C46.6836 144.111 45.5703 142.869 45.5703 140.848V140.836C45.5703 138.809 46.6836 137.572 48.4824 137.572C50.2812 137.572 51.3945 138.809 51.3945 140.836V140.848C51.3945 142.869 50.2812 144.111 48.4824 144.111ZM48.4824 143.209C49.6777 143.209 50.3516 142.336 50.3516 140.848V140.836C50.3516 139.342 49.6777 138.475 48.4824 138.475C47.2871 138.475 46.6133 139.342 46.6133 140.836V140.848C46.6133 142.336 47.2871 143.209 48.4824 143.209ZM53.0879 144V137.684H55.7656C56.9609 137.684 57.6582 138.334 57.6582 139.324V139.336C57.6582 139.963 57.2188 140.555 56.627 140.678V140.771C57.4297 140.883 57.9395 141.445 57.9395 142.178V142.189C57.9395 143.285 57.1367 144 55.7773 144H53.0879ZM54.1074 140.355H55.4551C56.2754 140.355 56.6445 140.039 56.6445 139.441V139.43C56.6445 138.891 56.3281 138.527 55.6191 138.527H54.1074V140.355ZM54.1074 143.156H55.7363C56.5098 143.156 56.9023 142.805 56.9023 142.172V142.16C56.9023 141.492 56.4512 141.199 55.543 141.199H54.1074V143.156ZM59.6621 144V137.684H60.6816V142.395H60.7754L63.8984 137.684H64.918V144H63.8984V139.289H63.8047L60.6816 144H59.6621ZM71.5039 137.684V138.527H69.459V144H68.4395V138.527H66.3945V137.684H71.5039ZM72.9746 144V137.684H73.9941V139.711H75.2305C76.6777 139.711 77.6035 140.543 77.6035 141.85V141.861C77.6035 143.168 76.6777 144 75.2305 144H72.9746ZM75.2305 140.555H73.9941V143.156H75.2305C76.0625 143.156 76.584 142.641 76.584 141.861V141.85C76.584 141.064 76.0566 140.555 75.2305 140.555ZM85.1387 144.111C83.3691 144.111 82.2383 142.828 82.2383 140.824V140.812C82.2383 138.85 83.3633 137.572 85.1328 137.572C86.668 137.572 87.5879 138.457 87.7754 139.582L87.7812 139.617H86.7676L86.7617 139.6C86.6035 138.979 86.041 138.475 85.1328 138.475C83.9961 138.475 83.2812 139.389 83.2812 140.812V140.824C83.2812 142.277 84.0078 143.209 85.1328 143.209C85.9824 143.209 86.5215 142.834 86.7559 142.131L86.7676 142.096L87.7754 142.09L87.7637 142.154C87.5059 143.297 86.6562 144.111 85.1387 144.111ZM93.6641 137.684V138.527H91.6191V144H90.5996V138.527H88.5547V137.684H93.6641ZM95.1406 146.109V137.684H96.1602V138.691H96.2539C96.6406 137.988 97.3438 137.572 98.2227 137.572C99.8223 137.572 100.871 138.867 100.871 140.836V140.848C100.871 142.828 99.8281 144.111 98.2227 144.111C97.3555 144.111 96.5996 143.678 96.2539 143.004H96.1602V146.109H95.1406ZM97.9883 143.209C99.1426 143.209 99.8281 142.318 99.8281 140.848V140.836C99.8281 139.365 99.1426 138.475 97.9883 138.475C96.8398 138.475 96.1367 139.377 96.1367 140.836V140.848C96.1367 142.307 96.8398 143.209 97.9883 143.209ZM104.316 144.111C103.115 144.111 102.207 143.385 102.207 142.236V142.225C102.207 141.1 103.039 140.449 104.51 140.361L106.32 140.25V139.676C106.32 138.896 105.846 138.475 104.902 138.475C104.146 138.475 103.648 138.756 103.484 139.248L103.479 139.266H102.459L102.465 139.23C102.629 138.24 103.59 137.572 104.938 137.572C106.479 137.572 107.34 138.363 107.34 139.676V144H106.32V143.068H106.227C105.828 143.742 105.166 144.111 104.316 144.111ZM103.25 142.213C103.25 142.852 103.795 143.227 104.527 143.227C105.564 143.227 106.32 142.547 106.32 141.645V141.07L104.633 141.176C103.672 141.234 103.25 141.574 103.25 142.201V142.213ZM113.463 144V141.141H110.334V144H109.314V137.684H110.334V140.297H113.463V137.684H114.482V144H113.463ZM116.486 144V137.684H117.506V142.395H117.6L120.723 137.684H121.742V144H120.723V139.289H120.629L117.506 144H116.486ZM128.896 145.67V144H123.752V137.684H124.771V143.156H127.842V137.684H128.861V143.156H129.869V145.67H128.896ZM131.68 146.215C131.545 146.215 131.369 146.203 131.229 146.18V145.342C131.352 145.365 131.51 145.371 131.65 145.371C132.23 145.371 132.582 145.107 132.811 144.381L132.928 144.006L130.59 137.684H131.68L133.414 142.881H133.508L135.236 137.684H136.309L133.842 144.387C133.32 145.805 132.799 146.215 131.68 146.215Z" fill="#9E9E9E"/>
</svg>
