<svg width="24" height="24" viewBox="0 0 24 24" fill="none" xmlns="http://www.w3.org/2000/svg">
<path d="M21.9977 10.8205C22.0256 9.72023 21.7988 8.62812 21.3345 7.62662C20.8702 6.62512 20.1096 5.74042 19.2465 5.0393C17.5989 3.76993 15.6025 3.01448 13.5144 2.87022C12.9335 2.28752 12.2423 1.82213 11.4798 1.50027C10.5886 1.17566 9.64273 0.978882 8.69263 1.00181C7.35946 1.00181 6.41256 1.54207 6.06417 1.99872C6.02672 2.0397 5.99804 2.08767 5.97982 2.13976C5.9616 2.19185 5.95423 2.24702 5.95813 2.30197C5.96203 2.35692 5.97713 2.41054 6.00252 2.45964C6.02792 2.50875 6.0631 2.55233 6.10597 2.5878C6.63968 2.93037 7.08896 3.44394 7.38365 3.99956V4.04066H7.34184C5.69909 4.90283 4.37097 6.10792 3.42169 7.68286C2.4724 9.25779 1.98085 11.0586 2.00057 12.8891C1.98899 14.2785 2.25083 15.6571 2.77168 16.9487C3.26529 18.152 3.90966 19.2407 4.85569 20.1453C5.81174 21.0541 6.94674 21.7612 8.19095 22.2231C9.52698 22.7167 10.9431 23.0133 12.3703 22.9995C14.2284 22.9995 14.7307 22.254 14.7661 22.2122C14.8015 22.1704 14.8441 21.9404 14.5464 21.9613C14.2487 21.9822 14.2061 21.9892 13.7667 21.9334C13.3272 21.8777 11.5605 21.4805 11.5056 19.4529C11.4942 19.0302 11.5644 18.6545 11.7241 18.2619C11.8839 17.8693 12.1235 17.5129 12.4283 17.2145C12.4625 17.1829 12.4872 17.1426 12.4996 17.0982C12.512 17.0537 12.5118 17.0067 12.4988 16.9623C12.4858 16.918 12.4607 16.878 12.4261 16.8468C12.3916 16.8155 12.349 16.7943 12.3029 16.7853C12.1286 16.7509 11.9512 16.7341 11.7734 16.7351C11.0789 16.7619 10.6083 17.0403 10.1234 17.5297C9.66981 17.9876 9.40716 18.8397 9.40047 19.3483C9.39378 19.857 9.43778 20.3733 9.78974 20.9418C9.11346 20.4639 8.51446 18.9909 8.35144 17.4834C8.18841 15.9759 8.76476 14.5176 9.57767 13.7322C10.4029 12.9516 11.4733 12.4919 12.6184 12.5058C13.2815 12.4768 13.9374 12.5739 14.546 12.8342C15.1546 13.0946 15.7372 13.4882 16.1675 13.9851C16.7986 14.7617 17.2344 15.7184 17.3757 16.7026C17.4686 17.3237 17.6033 17.931 18.0911 17.931C18.208 17.9225 18.3218 17.8905 18.4257 17.8371C18.5295 17.7837 18.6212 17.71 18.695 17.6205C18.8847 17.3977 19.0275 17.14 19.1152 16.8626C19.2029 16.5851 19.2338 16.2932 19.2059 16.0039C19.2059 15.9446 19.2059 15.8806 19.2059 15.803V15.7711H19.2338C19.8073 15.4473 20.3171 14.9972 20.7389 14.4965C21.586 13.4553 22.0318 12.1534 21.9977 10.8205ZM19.1874 13.2362C19.0107 13.4445 18.8095 13.6594 18.5881 13.8212L18.5417 13.8531L18.5138 13.8075C18.1776 13.2641 17.699 12.7387 17.2305 12.3C15.9805 11.1569 14.3344 10.5249 12.6271 10.5328C11.7921 10.518 10.9626 10.6685 10.188 10.9755C9.41334 11.2824 8.70947 11.7394 8.11827 12.3193C7.52706 12.8992 7.15985 13.5901 6.84594 14.351C6.53203 15.1118 6.37707 15.9269 6.39029 16.7478C6.41108 18.0384 6.51196 18.3499 6.82695 19.2416C6.68759 19.1229 3.99174 17.2418 3.98872 12.8891C3.97935 11.2644 4.46468 9.674 5.38228 8.32262C6.27704 7.02296 7.51172 6.00998 8.98648 5.40919C9.32672 5.27257 9.67404 5.15367 10.027 5.053C9.75589 4.23582 9.30011 3.48957 8.69384 2.87022C9.4717 2.74922 10.1977 2.86559 10.9062 3.20363C11.6147 3.54167 12.2575 4.113 12.642 4.78862L13.0415 4.81602C14.8491 4.86992 16.5379 5.44862 17.9784 6.52342C18.6173 7.04089 19.1973 7.696 19.5372 8.438C19.8772 9.18 20.0388 9.98896 20.0096 10.8022C20.0408 11.6841 19.749 12.5478 19.1874 13.2362Z" fill="#fff"/>
</svg>
