<svg viewBox="0 0 36 36" xmlns="http://www.w3.org/2000/svg">
<path d="M30.8617 4.78392L30.8599 4.78269C26.4873 1.74063 21.1814 2.8967 18.0005 6.06728C14.8208 2.89623 9.51401 1.72334 5.13926 4.78389L5.13921 4.78392C2.65832 6.51981 1.11285 9.43396 1.00717 12.5037C0.88448 15.977 2.34337 19.048 4.82857 22.193C7.27468 25.2886 10.794 28.5513 14.9643 32.4174L15.1033 32.5465L15.1061 32.5491L15.2654 32.6953C15.2657 32.6956 15.2662 32.6961 15.2665 32.6964C16.8069 34.1221 19.1806 34.1226 20.7213 32.677C20.7221 32.6762 20.7227 32.6755 20.7235 32.6749L20.8969 32.5139L20.8977 32.5133L20.9406 32.4734C25.1531 28.5764 28.7033 25.2919 31.1662 22.1744C33.6496 19.0312 35.1078 15.9608 34.9938 12.4888L34.9936 12.4874C34.8881 9.43336 33.342 6.51944 30.8617 4.78392ZM18.0005 28.5395C14.3112 25.13 11.2963 22.3208 9.17717 19.7941C6.97764 17.1715 5.86257 14.9884 5.86257 12.8952C5.86257 10.0239 7.9431 7.92467 10.7175 7.92467C12.4253 7.92467 14.1222 8.82095 15.1205 10.1748C15.7367 11.0104 16.7339 11.8221 18.0034 11.8221C19.2801 11.8221 20.2801 11.0014 20.8971 10.1629C21.8876 8.81681 23.5792 7.92467 25.2832 7.92467C28.0578 7.92467 30.1383 10.0239 30.1383 12.8952C30.1383 14.9884 29.0232 17.1715 26.8236 19.7941C24.7044 22.3208 21.6896 25.13 18.0005 28.5395Z" />
</svg>
