<svg xmlns="http://www.w3.org/2000/svg" viewBox="0 0 36 36">
<path d="M 18 15.75 C 19.242188 15.75 20.25 16.757812 20.25 18 L 20.25 24.75 C 20.25 25.992188 19.242188 27 18 27 C 16.757812 27 15.75 25.992188 15.75 24.75 L 15.75 18 C 15.75 16.757812 16.757812 15.75 18 15.75 Z M 18 15.75 "/>
<path d="M 18 13.5 C 19.242188 13.5 20.25 12.492188 20.25 11.25 C 20.25 10.007812 19.242188 9 18 9 C 16.757812 9 15.75 10.007812 15.75 11.25 C 15.75 12.492188 16.757812 13.5 18 13.5 Z M 18 13.5 "/>
<path d="M 0 18 C 0 8.058594 8.058594 0 18 0 C 27.941406 0 36 8.058594 36 18 C 36 27.941406 27.941406 36 18 36 C 8.058594 36 0 27.941406 0 18 Z M 18 4.5 C 10.542969 4.5 4.5 10.542969 4.5 18 C 4.5 25.457031 10.542969 31.5 18 31.5 C 25.457031 31.5 31.5 25.457031 31.5 18 C 31.5 10.542969 25.457031 4.5 18 4.5 Z M 18 4.5 "/>
</svg>