<svg width="36" height="36" viewBox="0 0 36 36" xmlns="http://www.w3.org/2000/svg">
  <path d="M31.5 1.5H4.5C2.84315 1.5 1.5 2.84315 1.5 4.5V7.5C1.5 9.15685 2.84315 10.5 4.5 10.5H31.5C33.1569 10.5 34.5 9.15685 34.5 7.5V4.5C34.5 2.84315 33.1569 1.5 31.5 1.5Z" />
  <path d="M31.5 13.5H4.5C2.84315 13.5 1.5 14.8431 1.5 16.5V19.5C1.5 21.1569 2.84315 22.5 4.5 22.5H31.5C33.1569 22.5 34.5 21.1569 34.5 19.5V16.5C34.5 14.8431 33.1569 13.5 31.5 13.5Z" />
  <path d="M31.5 25.5H4.5C2.84315 25.5 1.5 26.8431 1.5 28.5V31.5C1.5 33.1569 2.84315 34.5 4.5 34.5H31.5C33.1569 34.5 34.5 33.1569 34.5 31.5V28.5C34.5 26.8431 33.1569 25.5 31.5 25.5Z" />
</svg>
