<svg xmlns="http://www.w3.org/2000/svg" width="36" height="36" viewBox="0 0 36 36"><path d="M8 26c0 1.105 1.194 2 2.667 2h10.666C22.806 28 24 27.105 24 26s-1.194-2-2.667-2H10.667C9.194 24 8 24.895 8 26z" stroke-width="2.309"/><path d="M10.5 20C9.12 20 8 19.105 8 18s1.12-2 2.5-2h15c1.38 0 2.5.895 2.5 2s-1.12 2-2.5 2zM8 10c0 1.105 1.12 2 2.5 2h15c1.38 0 2.5-.895 2.5-2s-1.12-2-2.5-2h-15C9.12 8 8 8.895 8 10z" stroke-width="2.236"/><path d="M7.333 0h21.334C31.612 0 34 2.418 34 5.4v25.2c0 2.982-2.388 5.4-5.333 5.4H7.333C4.388 36 2 33.582 2 30.6V5.4C2 2.418 4.388 0 7.333 0zm0 3.6c-.981 0-1.777.806-1.777 1.8v25.2c0 .994.796 1.8 1.777 1.8h21.334c.982 0 1.777-.806 1.777-1.8V5.4c0-.994-.795-1.8-1.777-1.8z" clip-rule="evenodd" stroke-width="1.789"/></svg>
