<svg width="36" height="36" viewBox="0 0 36 36" fill="none" xmlns="http://www.w3.org/2000/svg">
<circle opacity="0.5" cx="24" cy="24" r="24" fill="#FFAB00"  transform="matrix(0.75,0,0,0.75,0,0)"/>
<path fill-rule="evenodd" clip-rule="evenodd" d="M19.6727 26.2601C20.0813 26.6316 20.1115 27.264 19.74 27.6727L15.8063 31.9997C16.1392 32.0862 16.525 32.1791 16.9595 32.2722C18.6534 32.6352 21.0824 33 24 33C26.9176 33 29.3466 32.6352 31.0405 32.2722C31.4751 32.1791 31.8609 32.0862 32.1937 31.9997L28.2601 27.6727C27.8886 27.264 27.9187 26.6316 28.3273 26.2601C28.736 25.8886 29.3684 25.9187 29.74 26.3273L34.74 31.8273C34.963 32.0727 35.0499 32.4126 34.972 32.7349C34.8942 33.0572 34.6616 33.3199 34.3511 33.4363L34 32.5C34.3511 33.4363 34.3514 33.4362 34.3511 33.4363L34.3486 33.4373L34.3446 33.4388L34.3322 33.4433L34.29 33.4586C34.2542 33.4714 34.2031 33.4893 34.1372 33.5116C34.0055 33.5562 33.8147 33.6184 33.5686 33.6922C33.0766 33.8398 32.363 34.0342 31.4595 34.2278C29.6534 34.6148 27.0824 35 24 35C20.9176 35 18.3466 34.6148 16.5405 34.2278C15.637 34.0342 14.9235 33.8398 14.4314 33.6922C14.1853 33.6184 13.9945 33.5562 13.8628 33.5116C13.797 33.4893 13.7459 33.4714 13.7101 33.4586L13.6679 33.4433L13.6554 33.4388L13.6514 33.4373L13.65 33.4367C13.6497 33.4366 13.6489 33.4363 14 32.5L13.6489 33.4363C13.3384 33.3199 13.1059 33.0572 13.028 32.7349C12.9501 32.4126 13.037 32.0727 13.2601 31.8273L18.2601 26.3273C18.6316 25.9187 19.264 25.8886 19.6727 26.2601Z" fill="white" transform="matrix(0.75,0,0,0.75,0,0)"/>
<path fill-rule="evenodd" clip-rule="evenodd" d="M23.3161 13.2705C23.7007 12.9098 24.2993 12.9098 24.6839 13.2705L32.684 20.7705C32.9668 21.0357 33.0709 21.4405 32.951 21.8092C32.8311 22.178 32.5088 22.4442 32.1241 22.4923L28.1241 22.9923C27.576 23.0608 27.0762 22.6721 27.0077 22.124C26.9392 21.576 27.328 21.0762 27.876 21.0077L29.7614 20.772L24 15.3707L18.2386 20.772L20.124 21.0077C20.6721 21.0762 21.0608 21.576 20.9923 22.124C20.9238 22.6721 20.424 23.0608 19.876 22.9923L15.876 22.4923C15.4912 22.4442 15.1689 22.178 15.049 21.8092C14.9291 21.4405 15.0332 21.0357 15.3161 20.7705L23.3161 13.2705Z" fill="white"  transform="matrix(0.75,0,0,0.75,0,0)"/>
<path fill-rule="evenodd" clip-rule="evenodd" d="M20.7433 21.331C21.1128 21.7415 21.0795 22.3738 20.669 22.7433L17.2958 25.7792L19.1241 26.0077C19.6721 26.0762 20.0608 26.576 19.9923 27.124C19.9238 27.6721 19.424 28.0608 18.876 27.9923L14.876 27.4923C14.4876 27.4437 14.1632 27.173 14.0459 26.7996C13.9287 26.4261 14.0401 26.0186 14.3311 25.7567L19.3311 21.2567C19.7416 20.8872 20.3739 20.9205 20.7433 21.331ZM27.2567 21.331C27.6262 20.9205 28.2585 20.8872 28.669 21.2567L33.669 25.7567C33.9599 26.0186 34.0714 26.4261 33.9541 26.7996C33.8368 27.173 33.5125 27.4437 33.1241 27.4923L29.1241 27.9923C28.576 28.0608 28.0762 27.6721 28.0077 27.124C27.9392 26.576 28.328 26.0762 28.876 26.0077L30.7043 25.7792L27.331 22.7433C26.9205 22.3738 26.8873 21.7415 27.2567 21.331Z" fill="white"  transform="matrix(0.75,0,0,0.75,0,0)"/>
</svg>
