<svg width="36" height="36" viewBox="0 0 36 36" xmlns="http://www.w3.org/2000/svg">
<path opacity="0.3" fill-rule="evenodd" d="M106.163 37.2641H101.212V23.2372H87.1854V18.2862H101.212V4.2587H106.163V18.2862H120.191V23.2372H106.163V37.2641ZM70.2788 52.7828C71.5464 54.2213 73.8876 55.6569 77.3059 57.0961C80.3783 55.7891 82.5529 54.3858 83.831 52.8827C85.1099 51.3788 85.7497 49.6254 85.7497 47.6209C85.7497 45.4231 84.9714 43.6746 83.4134 42.3782C81.8561 41.0824 79.7118 40.4356 76.9846 40.4356C74.2968 40.4356 72.1918 41.088 70.6662 42.3943C69.1412 43.7006 68.3777 45.4442 68.3777 47.6209C68.3777 49.6254 69.0104 51.3472 70.2788 52.7828ZM69.0217 66.3583C67.5832 68.0449 66.8633 70.0648 66.8633 72.4166C66.8633 75.0306 67.759 77.0667 69.5532 78.5269C71.3467 79.9872 73.8658 80.7142 77.1119 80.7142C80.315 80.7142 82.8053 79.9549 84.5883 78.4299C86.3719 76.905 87.2655 74.8148 87.2655 72.1558C87.2655 70.0438 86.4282 68.1652 84.7507 66.5221C83.0739 64.8762 80.1526 63.2817 75.9848 61.7349C72.7824 63.1277 70.4616 64.6688 69.0217 66.3583ZM65.0585 54.0083C63.7698 52.039 63.1237 49.8328 63.1237 47.3917C63.1237 43.9298 64.3857 41.1689 66.9111 39.1103C69.4358 37.0524 72.814 36.0225 77.0479 36.0225C81.3464 36.0225 84.7507 37.0356 87.2655 39.0618C89.7797 41.088 91.0368 43.8869 91.0368 47.4592C91.0368 49.8117 90.3168 51.9553 88.8762 53.8951C87.4378 55.8327 85.1388 57.5967 81.9792 59.1863C85.8031 61.0368 88.5226 62.9822 90.1333 65.019C91.7469 67.0557 92.5519 69.4131 92.5519 72.0911C92.5519 76.0564 91.1858 79.2188 88.4586 81.5825C85.7286 83.9448 81.989 85.1273 77.2426 85.1273C72.2136 85.1273 68.3461 84.0094 65.6378 81.7786C62.9296 79.545 61.5762 76.3826 61.5762 72.2872C61.5762 66.8216 64.8645 62.5617 71.4395 59.5126C68.474 57.8154 66.3472 55.9804 65.0585 54.0083ZM62.0185 123.903C27.8404 123.903 0.133301 96.1964 0.133301 62.0183C0.133301 27.8402 27.8404 0.133118 62.0185 0.133118C69.2333 0.133118 76.1606 1.3677 82.5986 3.63789C82.6471 4.73608 82.6471 8.81386 82.6471 8.79698C76.2274 6.28845 69.3261 5.0841 62.0185 5.0841C30.5746 5.0841 5.08428 30.5744 5.08428 62.0183C5.08428 93.4621 30.5746 118.952 62.0185 118.952C93.4623 118.952 118.953 93.4621 118.953 62.0183C118.953 54.7296 117.583 47.7608 115.087 41.3552C117.817 41.3897 119.9 41.3897 120.38 41.3833C122.662 47.8368 123.904 54.7823 123.904 62.0183C123.904 96.1964 96.1966 123.903 62.0185 123.903ZM32.6789 50.2019L29.8434 46.4791L42.3165 36.7101H46.8273V84.4728H41.6071V50.4311C41.6071 47.5991 41.6922 44.9212 41.8651 42.3943C41.413 42.852 40.9082 43.3322 40.35 43.8335C39.7918 44.3341 37.2347 46.4573 32.6789 50.2019Z" transform="matrix(0.2903226,0,0,0.2903226,0,0)"/>
</svg>
