<svg width="16" height="16" viewBox="0 0 16 16" fill="none" xmlns="http://www.w3.org/2000/svg">
<path fill-rule="evenodd" clip-rule="evenodd" d="M8.00132 11.8447L3.89999 14.4194C3.83234 14.4619 3.7535 14.4832 3.67364 14.4805C3.59378 14.4778 3.51656 14.4513 3.45193 14.4043C3.38729 14.3573 3.33822 14.292 3.31102 14.2169C3.28382 14.1417 3.27975 14.0602 3.29932 13.9827L4.48066 9.28739L0.765324 6.18339C0.703829 6.13224 0.659079 6.06384 0.636851 5.98701C0.614623 5.91018 0.615939 5.82845 0.640627 5.75237C0.665316 5.6763 0.712244 5.60937 0.775353 5.56023C0.838461 5.5111 0.91485 5.48201 0.994657 5.47672L5.82466 5.15005L7.62932 0.656721C7.65914 0.582739 7.7104 0.519361 7.77651 0.474729C7.84261 0.430098 7.92056 0.40625 8.00032 0.40625C8.08009 0.40625 8.15803 0.430098 8.22414 0.474729C8.29025 0.519361 8.34151 0.582739 8.37132 0.656721L10.1753 5.15005L15.006 5.47672C15.0858 5.48201 15.1622 5.5111 15.2253 5.56023C15.2884 5.60937 15.3353 5.6763 15.36 5.75237C15.3847 5.82845 15.386 5.91018 15.3638 5.98701C15.3416 6.06384 15.2968 6.13224 15.2353 6.18339L11.52 9.28739L12.7013 13.9827C12.7209 14.0602 12.7168 14.1417 12.6896 14.2169C12.6624 14.292 12.6133 14.3573 12.5487 14.4043C12.4841 14.4513 12.4069 14.4778 12.327 14.4805C12.2471 14.4832 12.1683 14.4619 12.1007 14.4194L8.00132 11.8447Z" fill="#FFAB00"/>
</svg>
