<svg width="36" height="36" viewBox="0 0 36 36" xmlns="http://www.w3.org/2000/svg">
  <path d="M13.5 1.5H4.5C2.84315 1.5 1.5 2.84315 1.5 4.5V13.5C1.5 15.1569 2.84315 16.5 4.5 16.5H13.5C15.1569 16.5 16.5 15.1569 16.5 13.5V4.5C16.5 2.84315 15.1569 1.5 13.5 1.5Z" />
  <path d="M13.5 19.5H4.5C2.84315 19.5 1.5 20.8431 1.5 22.5V31.5C1.5 33.1569 2.84315 34.5 4.5 34.5H13.5C15.1569 34.5 16.5 33.1569 16.5 31.5V22.5C16.5 20.8431 15.1569 19.5 13.5 19.5Z" />
  <path d="M31.5 1.5H22.5C20.8431 1.5 19.5 2.84315 19.5 4.5V13.5C19.5 15.1569 20.8431 16.5 22.5 16.5H31.5C33.1569 16.5 34.5 15.1569 34.5 13.5V4.5C34.5 2.84315 33.1569 1.5 31.5 1.5Z" />
  <path d="M31.5 19.5H22.5C20.8431 19.5 19.5 20.8431 19.5 22.5V31.5C19.5 33.1569 20.8431 34.5 22.5 34.5H31.5C33.1569 34.5 34.5 33.1569 34.5 31.5V22.5C34.5 20.8431 33.1569 19.5 31.5 19.5Z" />
</svg>
