<svg width="36" height="36" viewBox="0 0 36 36" xmlns="http://www.w3.org/2000/svg">
  <path d="M9 1.5H3C2.17157 1.5 1.5 2.17157 1.5 3V9C1.5 9.82843 2.17157 10.5 3 10.5H9C9.82843 10.5 10.5 9.82843 10.5 9V3C10.5 2.17157 9.82843 1.5 9 1.5Z" />
  <path d="M21 1.5H15C14.1716 1.5 13.5 2.17157 13.5 3V9C13.5 9.82843 14.1716 10.5 15 10.5H21C21.8284 10.5 22.5 9.82843 22.5 9V3C22.5 2.17157 21.8284 1.5 21 1.5Z" />
  <path d="M33 1.5H27C26.1716 1.5 25.5 2.17157 25.5 3V9C25.5 9.82843 26.1716 10.5 27 10.5H33C33.8284 10.5 34.5 9.82843 34.5 9V3C34.5 2.17157 33.8284 1.5 33 1.5Z" />
  <path d="M9 13.5H3C2.17157 13.5 1.5 14.1716 1.5 15V21C1.5 21.8284 2.17157 22.5 3 22.5H9C9.82843 22.5 10.5 21.8284 10.5 21V15C10.5 14.1716 9.82843 13.5 9 13.5Z" />
  <path d="M21 13.5H15C14.1716 13.5 13.5 14.1716 13.5 15V21C13.5 21.8284 14.1716 22.5 15 22.5H21C21.8284 22.5 22.5 21.8284 22.5 21V15C22.5 14.1716 21.8284 13.5 21 13.5Z" />
  <path d="M33 13.5H27C26.1716 13.5 25.5 14.1716 25.5 15V21C25.5 21.8284 26.1716 22.5 27 22.5H33C33.8284 22.5 34.5 21.8284 34.5 21V15C34.5 14.1716 33.8284 13.5 33 13.5Z" />
  <path d="M9 25.5H3C2.17157 25.5 1.5 26.1716 1.5 27V33C1.5 33.8284 2.17157 34.5 3 34.5H9C9.82843 34.5 10.5 33.8284 10.5 33V27C10.5 26.1716 9.82843 25.5 9 25.5Z" />
  <path d="M21 25.5H15C14.1716 25.5 13.5 26.1716 13.5 27V33C13.5 33.8284 14.1716 34.5 15 34.5H21C21.8284 34.5 22.5 33.8284 22.5 33V27C22.5 26.1716 21.8284 25.5 21 25.5Z" />
  <path d="M33 25.5H27C26.1716 25.5 25.5 26.1716 25.5 27V33C25.5 33.8284 26.1716 34.5 27 34.5H33C33.8284 34.5 34.5 33.8284 34.5 33V27C34.5 26.1716 33.8284 25.5 33 25.5Z" />
</svg>
