<svg viewBox="0 0 24 24" xmlns="http://www.w3.org/2000/svg">
    <path d="M19.944 3.6008L19.9429 3.60004C17.2422 1.72112 13.965 2.43516 12.0003 4.39347C10.0364 2.43487 6.75866 1.71044 4.0566 3.60078L4.05657 3.6008C2.52425 4.67297 1.56969 6.47289 1.50442 8.3689C1.42864 10.5142 2.32972 12.411 3.8647 14.3535C5.37554 16.2655 7.54926 18.2807 10.125 20.6686L10.2109 20.7483L10.2126 20.7499L10.311 20.8402C10.3112 20.8404 10.3115 20.8407 10.3117 20.8409C11.2631 21.7215 12.7292 21.7218 13.6808 20.8289C13.6813 20.8284 13.6817 20.828 13.6822 20.8276L13.7893 20.7282L13.7898 20.7278L13.8163 20.7032C16.4181 18.2962 18.6109 16.2675 20.1321 14.342C21.666 12.4006 22.5666 10.5042 22.4962 8.3597L22.4961 8.35883C22.4309 6.47252 21.476 4.67274 19.944 3.6008ZM12.0003 18.2734C9.72165 16.1675 7.8595 14.4324 6.55061 12.8718C5.19207 11.252 4.50335 9.90358 4.50335 8.61071C4.50335 6.83727 5.78839 5.54068 7.502 5.54068C8.55683 5.54068 9.6049 6.09427 10.2215 6.93048C10.6021 7.44659 11.218 7.9479 12.0021 7.9479C12.7907 7.9479 13.4083 7.44099 13.7894 6.92314C14.4012 6.09171 15.446 5.54068 16.4985 5.54068C18.2122 5.54068 19.4972 6.83727 19.4972 8.61071C19.4972 9.90358 18.8085 11.252 17.4499 12.8718C16.141 14.4324 14.2789 16.1675 12.0003 18.2734Z"/>
</svg>
