<svg width="1048" height="1048" viewBox="0 0 1048 1048" fill="none" xmlns="http://www.w3.org/2000/svg">
<rect width="1048" height="1048" fill="#F5F5F5"/>
<path d="M303.188 189V143.906H311.219V175.969H311.781L333.594 143.906H341.312V189H333.312V157H332.75L310.938 189H303.188ZM365.094 189.719C357.344 189.719 351.188 186.219 350.438 179.594L350.406 179.312H357.969L358.031 179.531C358.75 182.156 361.344 183.688 365 183.688C369.25 183.688 371.75 181.719 371.75 178.906V178.844C371.75 175.812 369.375 174.281 364.969 174.281H360.062V169.031H364.938C368.906 169.031 370.781 167.406 370.781 164.594V164.531C370.781 162.062 368.875 160.188 365.031 160.188C361.531 160.188 359.188 161.781 358.719 164.25L358.688 164.406H351.312L351.344 164.156C352.125 158.188 356.906 154.156 365.281 154.156C373.375 154.156 378.375 157.812 378.375 163.594V163.656C378.375 167.25 376.094 170.031 372.406 170.875V171.406C377.156 172.344 379.469 175.094 379.469 178.906V178.969C379.469 185.312 373.875 189.719 365.094 189.719ZM402.375 189.688C392.125 189.688 385.938 183 385.938 171.938V171.875C385.938 160.906 392.219 154.188 402.375 154.188C412.562 154.188 418.812 160.875 418.812 171.875V171.938C418.812 183 412.594 189.688 402.375 189.688ZM402.375 183.375C407.781 183.375 410.844 179.156 410.844 171.969V171.906C410.844 164.719 407.75 160.469 402.375 160.469C396.969 160.469 393.875 164.719 393.875 171.906V171.969C393.875 179.156 396.969 183.375 402.375 183.375ZM442.312 189.719C431.438 189.719 425.656 182.406 425.656 168.938V168.875C425.656 151.094 431.094 143 443.594 142.5L447.625 142.344C450.406 142.25 453.844 141.75 456.562 140.781V147.062C455.281 147.906 451.719 148.594 448.062 148.75L444.156 148.906C436.438 149.188 433 152.688 431.844 161.219L431.75 161.844H432.312C434.531 157.75 438.5 155.5 443.781 155.5C452.906 155.5 458.781 161.938 458.781 171.938V172C458.781 182.844 452.5 189.719 442.312 189.719ZM442.219 183.406C447.688 183.406 450.844 179.156 450.844 172.156V172.094C450.844 165.438 447.688 161.594 442.219 161.594C436.75 161.594 433.562 165.438 433.562 172.094V172.156C433.562 179.188 436.719 183.406 442.219 183.406ZM467.312 200.344V154.844H475.094V160.188H475.625C477.5 156.469 481.219 154.281 486 154.281C494.562 154.281 500.031 161.094 500.031 171.906V171.969C500.031 182.844 494.656 189.562 486 189.562C481.312 189.562 477.406 187.25 475.625 183.562H475.094V200.344H467.312ZM483.562 183C488.875 183 492.094 178.812 492.094 171.969V171.906C492.094 165.031 488.875 160.844 483.562 160.844C478.281 160.844 475 165.031 475 171.875V171.938C475 178.781 478.281 183 483.562 183ZM517.812 189.562C511.312 189.562 506.594 185.562 506.594 179.344V179.281C506.594 173.188 511.25 169.625 519.562 169.125L528.344 168.594V165.656C528.344 162.25 526.125 160.375 521.938 160.375C518.375 160.375 516.062 161.656 515.281 163.906L515.25 164.031H507.906L507.938 163.75C508.688 158 514.188 154.188 522.312 154.188C531.094 154.188 536.031 158.438 536.031 165.656V189H528.344V184.312H527.812C525.938 187.625 522.312 189.562 517.812 189.562ZM514.281 178.969C514.281 181.875 516.75 183.594 520.188 183.594C524.875 183.594 528.344 180.531 528.344 176.469V173.719L520.656 174.219C516.312 174.5 514.281 176.094 514.281 178.906V178.969ZM551.625 189H542.469L555.781 170.719L543.094 154.844H551.906L562.031 168.688H563.938V154.844H571.5V168.688H573.406L583.562 154.844H592.312L579.688 170.625L593.031 189H583.844L573.5 174.125H571.5V189H563.938V174.125H561.969L551.625 189ZM613.062 189.688C602.906 189.688 596.75 182.875 596.75 172V171.969C596.75 161.219 602.969 154.188 612.688 154.188C622.406 154.188 628.406 161 628.406 171.312V173.875H604.531C604.625 180 607.938 183.562 613.219 183.562C617.438 183.562 619.844 181.438 620.594 179.875L620.688 179.656H628.094L628 179.938C626.906 184.344 622.344 189.688 613.062 189.688ZM612.781 160.281C608.438 160.281 605.188 163.219 604.594 168.656H620.812C620.281 163.062 617.125 160.281 612.781 160.281ZM658.969 189V174.406H644.562V189H636.781V154.844H644.562V168.375H658.969V154.844H666.75V189H658.969ZM676.844 189V154.844H684.531V177.719H685.156L699.562 154.844H707.25V189H699.562V166H698.906L684.531 189H676.844ZM732 189.688C721.844 189.688 715.688 182.875 715.688 172V171.969C715.688 161.219 721.906 154.188 731.625 154.188C741.344 154.188 747.344 161 747.344 171.312V173.875H723.469C723.562 180 726.875 183.562 732.156 183.562C736.375 183.562 738.781 181.438 739.531 179.875L739.625 179.656H747.031L746.938 179.938C745.844 184.344 741.281 189.688 732 189.688ZM731.719 160.281C727.375 160.281 724.125 163.219 723.531 168.656H739.75C739.219 163.062 736.062 160.281 731.719 160.281ZM267.281 285V270.406H252.875V285H245.094V250.844H252.875V264.375H267.281V250.844H275.062V285H267.281ZM299.812 285.688C289.656 285.688 283.5 278.875 283.5 268V267.969C283.5 257.219 289.719 250.188 299.438 250.188C309.156 250.188 315.156 257 315.156 267.312V269.875H291.281C291.375 276 294.688 279.562 299.969 279.562C304.188 279.562 306.594 277.438 307.344 275.875L307.438 275.656H314.844L314.75 275.938C313.656 280.344 309.094 285.688 299.812 285.688ZM299.531 256.281C295.188 256.281 291.938 259.219 291.344 264.656H307.562C307.031 259.062 303.875 256.281 299.531 256.281ZM353.406 285.719C345.656 285.719 339.5 282.219 338.75 275.594L338.719 275.312H346.281L346.344 275.531C347.062 278.156 349.656 279.688 353.312 279.688C357.562 279.688 360.062 277.719 360.062 274.906V274.844C360.062 271.812 357.688 270.281 353.281 270.281H348.375V265.031H353.25C357.219 265.031 359.094 263.406 359.094 260.594V260.531C359.094 258.062 357.188 256.188 353.344 256.188C349.844 256.188 347.5 257.781 347.031 260.25L347 260.406H339.625L339.656 260.156C340.438 254.188 345.219 250.156 353.594 250.156C361.688 250.156 366.688 253.812 366.688 259.594V259.656C366.688 263.25 364.406 266.031 360.719 266.875V267.406C365.469 268.344 367.781 271.094 367.781 274.906V274.969C367.781 281.312 362.188 285.719 353.406 285.719ZM385.562 285.562C379.062 285.562 374.344 281.562 374.344 275.344V275.281C374.344 269.188 379 265.625 387.312 265.125L396.094 264.594V261.656C396.094 258.25 393.875 256.375 389.688 256.375C386.125 256.375 383.812 257.656 383.031 259.906L383 260.031H375.656L375.688 259.75C376.438 254 381.938 250.188 390.062 250.188C398.844 250.188 403.781 254.438 403.781 261.656V285H396.094V280.312H395.562C393.688 283.625 390.062 285.562 385.562 285.562ZM382.031 274.969C382.031 277.875 384.5 279.594 387.938 279.594C392.625 279.594 396.094 276.531 396.094 272.469V269.719L388.406 270.219C384.062 270.5 382.031 272.094 382.031 274.906V274.969ZM436.75 256.875H421.5V285H413.719V250.844H436.75V256.875ZM444.625 296.344V250.844H452.406V256.188H452.938C454.812 252.469 458.531 250.281 463.312 250.281C471.875 250.281 477.344 257.094 477.344 267.906V267.969C477.344 278.844 471.969 285.562 463.312 285.562C458.625 285.562 454.719 283.25 452.938 279.562H452.406V296.344H444.625ZM460.875 279C466.188 279 469.406 274.812 469.406 267.969V267.906C469.406 261.031 466.188 256.844 460.875 256.844C455.594 256.844 452.312 261.031 452.312 267.875V267.938C452.312 274.781 455.594 279 460.875 279ZM488.094 297C487.156 297 486.062 296.969 485.125 296.875V290.906C485.75 290.969 486.625 291 487.438 291C490.625 291 492.531 289.688 493.375 286.594L493.781 285.031L481.562 250.844H490.062L498.031 277.531H498.625L506.562 250.844H514.75L502.5 285.719C499.562 294.281 495.656 297 488.094 297ZM533.469 285.719C525.719 285.719 519.562 282.219 518.812 275.594L518.781 275.312H526.344L526.406 275.531C527.125 278.156 529.719 279.688 533.375 279.688C537.625 279.688 540.125 277.719 540.125 274.906V274.844C540.125 271.812 537.75 270.281 533.344 270.281H528.438V265.031H533.312C537.281 265.031 539.156 263.406 539.156 260.594V260.531C539.156 258.062 537.25 256.188 533.406 256.188C529.906 256.188 527.562 257.781 527.094 260.25L527.062 260.406H519.688L519.719 260.156C520.5 254.188 525.281 250.156 533.656 250.156C541.75 250.156 546.75 253.812 546.75 259.594V259.656C546.75 263.25 544.469 266.031 540.781 266.875V267.406C545.531 268.344 547.844 271.094 547.844 274.906V274.969C547.844 281.312 542.25 285.719 533.469 285.719ZM556.406 285V250.844H564.094V273.719H564.719L579.125 250.844H586.812V285H579.125V262H578.469L564.094 285H556.406ZM606.844 270.219C606.188 280.062 603.156 285.312 596.219 285.312C594.812 285.312 593.781 285.094 593.281 284.938V278.25C593.625 278.344 594.469 278.469 595.344 278.469C598.469 278.469 599.562 274.5 599.875 269.594L601.062 250.844H625.562V285H617.781V256.875H607.812L606.844 270.219ZM650.438 285.688C640.188 285.688 634 279 634 267.938V267.875C634 256.906 640.281 250.188 650.438 250.188C660.625 250.188 666.875 256.875 666.875 267.875V267.938C666.875 279 660.656 285.688 650.438 285.688ZM650.438 279.375C655.844 279.375 658.906 275.156 658.906 267.969V267.906C658.906 260.719 655.812 256.469 650.438 256.469C645.031 256.469 641.938 260.719 641.938 267.906V267.969C641.938 275.156 645.031 279.375 650.438 279.375ZM689.969 285.688C679.688 285.688 673.625 279.031 673.625 267.875V267.812C673.625 256.781 679.656 250.188 689.938 250.188C698.719 250.188 703.969 255.062 704.844 262.125V262.25H697.5L697.469 262.156C696.75 258.844 694.219 256.469 689.969 256.469C684.656 256.469 681.531 260.656 681.531 267.812V267.875C681.531 275.125 684.688 279.375 689.969 279.375C694 279.375 696.469 277.531 697.438 273.938L697.5 273.812L704.844 273.781L704.781 274.031C703.656 281.031 698.625 285.688 689.969 285.688ZM712.844 285V250.844H720.625V261.156H727.375C735.344 261.156 740.438 265.812 740.438 273.062V273.125C740.438 280.375 735.344 285 727.375 285H712.844ZM726.375 267.156H720.625V279H726.375C730.188 279 732.594 276.594 732.594 273.094V273.031C732.594 269.5 730.156 267.156 726.375 267.156ZM771.031 262.406C768.188 262.406 766.062 260.25 766.062 257.5C766.062 254.719 768.188 252.562 771.031 252.562C773.906 252.562 776 254.719 776 257.5C776 260.25 773.906 262.406 771.031 262.406ZM771.031 285.625C768.188 285.625 766.062 283.438 766.062 280.688C766.062 277.906 768.188 275.75 771.031 275.75C773.906 275.75 776 277.906 776 280.688C776 283.438 773.906 285.625 771.031 285.625ZM797.875 296.344C791.625 288.5 788.75 278.719 788.75 266.969C788.75 255.188 791.625 245.406 797.875 237.625H804.875C800.25 243.469 796.75 255.906 796.75 266.969C796.75 278.094 800.25 290.438 804.875 296.344H797.875Z" fill="#9E9E9E"/>
<path d="M413.37 517.237C416.864 459.174 465.059 413.165 524 413.165C552.119 413.165 577.759 423.616 597.307 440.869C603.863 446.655 613.869 446.032 619.655 439.475C625.442 432.919 624.818 422.914 618.262 417.127C593.151 394.964 560.129 381.498 524 381.498C447.45 381.498 384.997 441.859 381.642 517.582L361.029 496.969C354.846 490.786 344.821 490.786 338.637 496.969C332.454 503.152 332.454 513.177 338.637 519.361L386.137 566.861C392.321 573.044 402.346 573.044 408.529 566.861L456.029 519.361C462.212 513.177 462.212 503.152 456.029 496.969C449.846 490.786 439.821 490.786 433.637 496.969L413.37 517.237Z" fill="#757575"/>
<path d="M639.471 481.136C645.654 474.952 655.679 474.952 661.863 481.136L709.363 528.635C715.546 534.819 715.546 544.844 709.363 551.027C703.179 557.211 693.154 557.211 686.971 551.027L666.359 530.415C663.003 606.138 600.551 666.498 524.001 666.498C487.872 666.498 454.849 653.032 429.739 630.869C423.183 625.082 422.559 615.077 428.345 608.521C434.132 601.964 444.137 601.341 450.694 607.127C470.241 624.38 495.881 634.831 524.001 634.831C582.942 634.831 631.137 588.822 634.631 530.759L614.363 551.027C608.179 557.211 598.154 557.211 591.971 551.027C585.788 544.844 585.788 534.819 591.971 528.636L639.471 481.136Z" fill="#757575"/>
<path d="M360.438 809H352.375V770.688H330.781V809H322.719V763.906H360.438V809ZM386.156 809.688C375.906 809.688 369.719 803 369.719 791.938V791.875C369.719 780.906 376 774.188 386.156 774.188C396.344 774.188 402.594 780.875 402.594 791.875V791.938C402.594 803 396.375 809.688 386.156 809.688ZM386.156 803.375C391.562 803.375 394.625 799.156 394.625 791.969V791.906C394.625 784.719 391.531 780.469 386.156 780.469C380.75 780.469 377.656 784.719 377.656 791.906V791.969C377.656 799.156 380.75 803.375 386.156 803.375ZM411 809V774.844H440.656V809H432.875V780.875H418.781V809H411ZM450.781 820.344V774.844H458.562V780.188H459.094C460.969 776.469 464.688 774.281 469.469 774.281C478.031 774.281 483.5 781.094 483.5 791.906V791.969C483.5 802.844 478.125 809.562 469.469 809.562C464.781 809.562 460.875 807.25 459.094 803.562H458.562V820.344H450.781ZM467.031 803C472.344 803 475.562 798.812 475.562 791.969V791.906C475.562 785.031 472.344 780.844 467.031 780.844C461.75 780.844 458.469 785.031 458.469 791.875V791.938C458.469 798.781 461.75 803 467.031 803ZM506.719 809.688C496.469 809.688 490.281 803 490.281 791.938V791.875C490.281 780.906 496.562 774.188 506.719 774.188C516.906 774.188 523.156 780.875 523.156 791.875V791.938C523.156 803 516.938 809.688 506.719 809.688ZM506.719 803.375C512.125 803.375 515.188 799.156 515.188 791.969V791.906C515.188 784.719 512.094 780.469 506.719 780.469C501.312 780.469 498.219 784.719 498.219 791.906V791.969C498.219 799.156 501.312 803.375 506.719 803.375ZM546.656 809.719C535.781 809.719 530 802.406 530 788.938V788.875C530 771.094 535.438 763 547.938 762.5L551.969 762.344C554.75 762.25 558.188 761.75 560.906 760.781V767.062C559.625 767.906 556.062 768.594 552.406 768.75L548.5 768.906C540.781 769.188 537.344 772.688 536.188 781.219L536.094 781.844H536.656C538.875 777.75 542.844 775.5 548.125 775.5C557.25 775.5 563.125 781.938 563.125 791.938V792C563.125 802.844 556.844 809.719 546.656 809.719ZM546.562 803.406C552.031 803.406 555.188 799.156 555.188 792.156V792.094C555.188 785.438 552.031 781.594 546.562 781.594C541.094 781.594 537.906 785.438 537.906 792.094V792.156C537.906 799.188 541.062 803.406 546.562 803.406ZM573.938 821C573 821 571.906 820.969 570.969 820.875V814.906C571.594 814.969 572.469 815 573.281 815C576.469 815 578.375 813.688 579.219 810.594L579.625 809.031L567.406 774.844H575.906L583.875 801.531H584.469L592.406 774.844H600.594L588.344 809.719C585.406 818.281 581.5 821 573.938 821ZM623.094 770.188C616.188 770.188 611.625 765.719 611.625 759.531H617.719C617.781 762.875 619.812 765.656 623.094 765.656C626.375 765.656 628.375 762.875 628.438 759.531H634.562C634.562 765.719 629.969 770.188 623.094 770.188ZM607.875 809V774.844H615.562V797.719H616.188L630.594 774.844H638.281V809H630.594V786H629.938L615.562 809H607.875ZM674.469 774.844V780.875H663.938V809H656.156V780.875H645.656V774.844H674.469ZM695.406 809.688C685.25 809.688 679.094 802.875 679.094 792V791.969C679.094 781.219 685.312 774.188 695.031 774.188C704.75 774.188 710.75 781 710.75 791.312V793.875H686.875C686.969 800 690.281 803.562 695.562 803.562C699.781 803.562 702.188 801.438 702.938 799.875L703.031 799.656H710.438L710.344 799.938C709.25 804.344 704.688 809.688 695.406 809.688ZM695.125 780.281C690.781 780.281 687.531 783.219 686.938 788.656H703.156C702.625 783.062 699.469 780.281 695.125 780.281ZM228.281 905.688C218.031 905.688 211.844 899 211.844 887.938V887.875C211.844 876.906 218.125 870.188 228.281 870.188C238.469 870.188 244.719 876.875 244.719 887.875V887.938C244.719 899 238.5 905.688 228.281 905.688ZM228.281 899.375C233.688 899.375 236.75 895.156 236.75 887.969V887.906C236.75 880.719 233.656 876.469 228.281 876.469C222.875 876.469 219.781 880.719 219.781 887.906V887.969C219.781 895.156 222.875 899.375 228.281 899.375ZM268.219 905.719C257.344 905.719 251.562 898.406 251.562 884.938V884.875C251.562 867.094 257 859 269.5 858.5L273.531 858.344C276.312 858.25 279.75 857.75 282.469 856.781V863.062C281.188 863.906 277.625 864.594 273.969 864.75L270.062 864.906C262.344 865.188 258.906 868.688 257.75 877.219L257.656 877.844H258.219C260.438 873.75 264.406 871.5 269.688 871.5C278.812 871.5 284.688 877.938 284.688 887.938V888C284.688 898.844 278.406 905.719 268.219 905.719ZM268.125 899.406C273.594 899.406 276.75 895.156 276.75 888.156V888.094C276.75 881.438 273.594 877.594 268.125 877.594C262.656 877.594 259.469 881.438 259.469 888.094V888.156C259.469 895.188 262.625 899.406 268.125 899.406ZM315.375 905V890.406H300.969V905H293.188V870.844H300.969V884.375H315.375V870.844H323.156V905H315.375ZM348.031 905.688C337.781 905.688 331.594 899 331.594 887.938V887.875C331.594 876.906 337.875 870.188 348.031 870.188C358.219 870.188 364.469 876.875 364.469 887.875V887.938C364.469 899 358.25 905.688 348.031 905.688ZM348.031 899.375C353.438 899.375 356.5 895.156 356.5 887.969V887.906C356.5 880.719 353.406 876.469 348.031 876.469C342.625 876.469 339.531 880.719 339.531 887.906V887.969C339.531 895.156 342.625 899.375 348.031 899.375ZM372.875 905V870.844H389.031C395.906 870.844 399.938 874.312 399.938 879.562V879.625C399.938 883.188 397.469 886.344 394 886.938V887.469C398.5 887.969 401.469 891.094 401.469 895.219V895.281C401.469 901.094 396.844 905 389.25 905H372.875ZM380.562 885.031H386.562C390.406 885.031 392.281 883.469 392.281 880.625V880.562C392.281 877.969 390.625 876.219 387.188 876.219H380.562V885.031ZM380.562 899.625H387.844C391.594 899.625 393.5 897.875 393.5 894.938V894.875C393.5 891.781 391.375 890.25 387.125 890.25H380.562V899.625ZM410.125 905V870.844H417.812V893.719H418.438L432.844 870.844H440.531V905H432.844V882H432.188L417.812 905H410.125ZM476.719 870.844V876.875H466.188V905H458.406V876.875H447.906V870.844H476.719ZM484.062 905V870.844H491.844V881.156H498.594C506.562 881.156 511.656 885.812 511.656 893.062V893.125C511.656 900.375 506.562 905 498.594 905H484.062ZM497.594 887.156H491.844V899H497.594C501.406 899 503.812 896.594 503.812 893.094V893.031C503.812 889.5 501.375 887.156 497.594 887.156ZM551.438 905.688C541.156 905.688 535.094 899.031 535.094 887.875V887.812C535.094 876.781 541.125 870.188 551.406 870.188C560.188 870.188 565.438 875.062 566.312 882.125V882.25H558.969L558.938 882.156C558.219 878.844 555.688 876.469 551.438 876.469C546.125 876.469 543 880.656 543 887.812V887.875C543 895.125 546.156 899.375 551.438 899.375C555.469 899.375 557.938 897.531 558.906 893.938L558.969 893.812L566.312 893.781L566.25 894.031C565.125 901.031 560.094 905.688 551.438 905.688ZM599.031 870.844V876.875H588.5V905H580.719V876.875H570.219V870.844H599.031ZM606.406 916.344V870.844H614.188V876.188H614.719C616.594 872.469 620.312 870.281 625.094 870.281C633.656 870.281 639.125 877.094 639.125 887.906V887.969C639.125 898.844 633.75 905.562 625.094 905.562C620.406 905.562 616.5 903.25 614.719 899.562H614.188V916.344H606.406ZM622.656 899C627.969 899 631.188 894.812 631.188 887.969V887.906C631.188 881.031 627.969 876.844 622.656 876.844C617.375 876.844 614.094 881.031 614.094 887.875V887.938C614.094 894.781 617.375 899 622.656 899ZM656.906 905.562C650.406 905.562 645.688 901.562 645.688 895.344V895.281C645.688 889.188 650.344 885.625 658.656 885.125L667.438 884.594V881.656C667.438 878.25 665.219 876.375 661.031 876.375C657.469 876.375 655.156 877.656 654.375 879.906L654.344 880.031H647L647.031 879.75C647.781 874 653.281 870.188 661.406 870.188C670.188 870.188 675.125 874.438 675.125 881.656V905H667.438V900.312H666.906C665.031 903.625 661.406 905.562 656.906 905.562ZM653.375 894.969C653.375 897.875 655.844 899.594 659.281 899.594C663.969 899.594 667.438 896.531 667.438 892.469V889.719L659.75 890.219C655.406 890.5 653.375 892.094 653.375 894.906V894.969ZM707.25 905V890.406H692.844V905H685.062V870.844H692.844V884.375H707.25V870.844H715.031V905H707.25ZM725.125 905V870.844H732.812V893.719H733.438L747.844 870.844H755.531V905H747.844V882H747.188L732.812 905H725.125ZM793.312 913.906V905H765.625V870.844H773.406V899H787.5V870.844H795.281V899H800.531V913.906H793.312ZM810.625 917C809.688 917 808.594 916.969 807.656 916.875V910.906C808.281 910.969 809.156 911 809.969 911C813.156 911 815.062 909.688 815.906 906.594L816.312 905.031L804.094 870.844H812.594L820.562 897.531H821.156L829.094 870.844H837.281L825.031 905.719C822.094 914.281 818.188 917 810.625 917Z" fill="#9E9E9E"/>
</svg>
