<svg viewBox="0 0 24 24" xmlns="http://www.w3.org/2000/svg">
    <path d="M19.9394 22.0606L16.7214 18.8427L16.382 19.0622C14.976 19.9718 13.3005 20.5 11.5 20.5C6.52943 20.5 2.5 16.4706 2.5 11.5C2.5 6.52943 6.52943 2.5 11.5 2.5C16.4706 2.5 20.5 6.52943 20.5 11.5C20.5 13.3005 19.9718 14.976 19.0622 16.382L18.8427 16.7214L22.0607 19.9394C22.6465 20.5251 22.6464 21.4749 22.0606 22.0607C21.4749 22.6465 20.5251 22.6465 19.9394 22.0606ZM9 10H10V9C10 8.17157 10.6715 7.5 11.5 7.5C12.3285 7.5 13 8.17157 13 9V10H14C14.8285 10 15.5 10.6715 15.5 11.5C15.5 12.3285 14.8285 13 14 13H13V14C13 14.8285 12.3285 15.5 11.5 15.5C10.6715 15.5 10 14.8285 10 14V13H9C8.17157 13 7.5 12.3285 7.5 11.5C7.5 10.6715 8.17157 10 9 10ZM11.5 5.5C8.18629 5.5 5.5 8.18629 5.5 11.5C5.5 14.8137 8.18629 17.5 11.5 17.5C14.8137 17.5 17.5 14.8137 17.5 11.5C17.5 8.18629 14.8137 5.5 11.5 5.5Z"/>
</svg>
