<svg width="14" height="14" viewBox="0 0 36 36" xmlns="http://www.w3.org/2000/svg">
<path d="M0.719168 3.62469C0.374158 3.19343 0.44408 2.56414 0.875342 2.21913L3.37534 0.219131C3.74056 -0.0730438 4.25951 -0.0730437 4.62473 0.219131L7.12473 2.21913C7.55599 2.56414 7.62592 3.19343 7.28091 3.62469C6.9359 4.05596 6.3066 4.12588 5.87534 3.78087L4.00004 2.28062L2.12473 3.78087C1.69347 4.12588 1.06418 4.05596 0.719168 3.62469Z" fill="#212121" transform="matrix(2.571428571,0,0,2.571428571,7,0)"/>
<path d="M0.719168 10.3753C1.06418 9.94404 1.69347 9.87412 2.12473 10.2191L4.00004 11.7194L5.87534 10.2191C6.3066 9.87412 6.9359 9.94404 7.28091 10.3753C7.62592 10.8066 7.55599 11.4359 7.12473 11.7809L4.62473 13.7809C4.25951 14.073 3.74056 14.073 3.37534 13.7809L0.875342 11.7809C0.44408 11.4359 0.374159 10.8066 0.719168 10.3753Z" fill="#212121" transform="matrix(2.571428571,0,0,2.571428571,7,0)"/>
</svg>
