<svg width="64" height="64" viewBox="0 0 64 64" fill="none" xmlns="http://www.w3.org/2000/svg">
<path d="M24.0009 16V44L18.9954 38.6608C17.6116 37.1847 15.2993 37.0924 13.8022 38.4534C12.2651 39.8507 12.1776 42.2387 13.6084 43.7447L25.7344 56.509C28.4585 59.3765 32.2403 61 36.1954 61H37.181C43.1567 61 48.0009 56.1558 48.0009 50.1801V39.75C48.0009 36.4363 45.3146 33.75 42.0009 33.75C42.0009 31.6789 40.322 30 38.2509 30H36.0009C36.0009 27.6528 34.0981 25.75 31.7509 25.75H30.0009V16C30.0009 14.3431 28.6577 13 27.0009 13C25.344 13 24.0009 14.3431 24.0009 16Z" fill="white"/>
<path fill-rule="evenodd" clip-rule="evenodd" d="M27.0009 14C25.8963 14 25.0009 14.8954 25.0009 16V44C25.0009 44.4103 24.7502 44.779 24.3686 44.9299C23.987 45.0808 23.552 44.9833 23.2714 44.6839L18.2659 39.3447C17.2557 38.2672 15.5677 38.1998 14.4748 39.1933C13.3528 40.2134 13.2889 41.9566 14.3334 43.0559L26.4594 55.8202C28.9947 58.489 32.5144 60 36.1954 60H37.181C42.6044 60 47.0009 55.6035 47.0009 50.1801V39.75C47.0009 37.331 45.2831 35.3133 43.0009 34.85V39.5C43.0009 40.0523 42.5532 40.5 42.0009 40.5C41.4486 40.5 41.0009 40.0523 41.0009 39.5V33.75C41.0009 32.2312 39.7697 31 38.2509 31H37.0009V39C37.0009 39.5523 36.5532 40 36.0009 40C35.4486 40 35.0009 39.5523 35.0009 39V30C35.0009 28.2051 33.5458 26.75 31.7509 26.75H31.0009V39C31.0009 39.5523 30.5532 40 30.0009 40C29.4486 40 29.0009 39.5523 29.0009 39V16C29.0009 14.8954 28.1055 14 27.0009 14ZM31.0009 24.75V16C31.0009 13.7909 29.21 12 27.0009 12C24.7918 12 23.0009 13.7909 23.0009 16V41.4712L19.7249 37.9769C17.9675 36.1022 15.0308 35.985 13.1295 37.7135C11.1774 39.4881 11.0663 42.5208 12.8834 44.4334L25.0094 57.1977C27.9223 60.2639 31.9662 62 36.1954 62H37.181C43.709 62 49.0009 56.7081 49.0009 50.1801V39.75C49.0009 36.1912 46.3452 33.2528 42.9075 32.8082C42.4706 30.636 40.5518 29 38.2509 29H36.9058C36.4388 26.5788 34.3084 24.75 31.7509 24.75H31.0009Z" fill="#212121"/>
<path d="M12.4142 9.58548L11.8284 8.9997H52.1716L51.5858 9.58548C51.1575 10.0137 50.9626 10.5565 51.0037 11.1017C51.0428 11.6195 51.2877 12.0696 51.6089 12.3908C51.9301 12.712 52.3802 12.9569 52.898 12.996C53.4432 13.0371 53.986 12.8421 54.4142 12.4139L55.5866 11.2413C56.721 10.1066 58.1401 8.68713 58.4119 8.41626C59.1895 7.64104 59.1921 6.36338 58.4142 5.58549L54.4142 1.58548C53.986 1.15724 53.4432 0.962315 52.898 1.00342C52.3802 1.04246 51.9301 1.28741 51.6089 1.60862C51.2877 1.92984 51.0428 2.37985 51.0037 2.89768C50.9626 3.4429 51.1575 3.98567 51.5858 4.41391L52.1716 4.9997H11.8284L12.4142 4.41391C12.8425 3.98567 13.0374 3.4429 12.9963 2.89769C12.9572 2.37985 12.7123 1.92984 12.3911 1.60863C12.0699 1.28741 11.6198 1.04246 11.102 1.00342C10.5568 0.962315 10.014 1.15725 9.58579 1.58548L5.58579 5.58548C4.80474 6.36653 4.80474 7.63286 5.58579 8.41391L9.58579 12.4139C10.014 12.8421 10.5568 13.0371 11.102 12.996C11.6198 12.9569 12.0699 12.712 12.3911 12.3908C12.7123 12.0696 12.9572 11.6195 12.9963 11.1017C13.0374 10.5565 12.8424 10.0137 12.4142 9.58548Z" fill="white"/>
<path d="M52.2929 3.70711C51.9024 3.31658 51.9024 2.68342 52.2929 2.29289C52.6834 1.90237 53.3166 1.90237 53.7071 2.29289L57.7071 6.29289C57.9024 6.48815 58 6.74408 58 7C58 7.26609 57.9025 7.50588 57.718 7.69609C56.4022 9.05287 55.0435 10.3707 53.7071 11.7071C53.3166 12.0976 52.6834 12.0976 52.2929 11.7071C51.9024 11.3166 51.9024 10.6834 52.2929 10.2929L54.5858 8H9.41421L11.7071 10.2929C12.0976 10.6834 12.0976 11.3166 11.7071 11.7071C11.3166 12.0976 10.6834 12.0976 10.2929 11.7071L6.29289 7.70711C5.90237 7.31658 5.90237 6.68342 6.29289 6.29289L10.2929 2.29289C10.6834 1.90237 11.3166 1.90237 11.7071 2.29289C12.0976 2.68342 12.0976 3.31658 11.7071 3.70711L9.41421 6H54.5858L52.2929 3.70711Z" fill="#212121"/>
</svg>
