<svg width="24" height="24" viewBox="0 0 24 24" xmlns="http://www.w3.org/2000/svg">
<path fill-rule="evenodd" clip-rule="evenodd" d="M10 4C9.44772 4 9 4.44772 9 5H15C15 4.44772 14.5523 4 14 4H10ZM16.9311 7H7.06889L7.87332 19.0665C7.90834 19.5918 8.34464 20 8.87111 20H15.1289C15.6554 20 16.0917 19.5918 16.1267 19.0665L16.9311 7ZM7 5H4C3.44772 5 3 5.44772 3 6C3 6.55228 3.44772 7 4 7H5.06445L5.87775 19.1996C5.98281 20.7754 7.29171 22 8.87111 22H15.1289C16.7083 22 18.0172 20.7754 18.1222 19.1996L18.9356 7H20C20.5523 7 21 6.55228 21 6C21 5.44772 20.5523 5 20 5H17C17 3.34315 15.6569 2 14 2H10C8.34315 2 7 3.34315 7 5Z" />
<path fill-rule="evenodd" clip-rule="evenodd" d="M10 4C9.44772 4 9 4.44772 9 5H15C15 4.44772 14.5523 4 14 4H10ZM8.13777 8L8.87111 19H15.1289L15.8622 8H8.13777ZM7.87332 19.0665C7.90834 19.5918 8.34464 20 8.87111 20H15.1289C15.6554 20 16.0917 19.5918 16.1267 19.0665L16.9311 7H7.06889L7.87332 19.0665ZM2 6C2 4.89543 2.89543 4 4 4H6.12602C6.57006 2.27477 8.13616 1 10 1H14C15.8638 1 17.4299 2.27477 17.874 4H20C21.1046 4 22 4.89543 22 6C22 7.10457 21.1046 8 20 8H19.8711L19.12 19.2661C18.98 21.3673 17.2347 23 15.1289 23H8.87111C6.76525 23 5.02005 21.3673 4.87997 19.2661L4.12889 8H4C2.89543 8 2 7.10457 2 6ZM5.06445 7L5.87775 19.1996C5.98281 20.7754 7.29171 22 8.87111 22H15.1289C16.7083 22 18.0172 20.7754 18.1222 19.1996L18.9356 7H20C20.5523 7 21 6.55228 21 6C21 5.44772 20.5523 5 20 5H17C17 3.34315 15.6569 2 14 2H10C8.34315 2 7 3.34315 7 5H4C3.44772 5 3 5.44772 3 6C3 6.55228 3.44772 7 4 7H5.06445Z" fill="#F5F5F5"/>
</svg>
