<svg width="36" height="36" viewBox="0 0 36 36" xmlns="http://www.w3.org/2000/svg">
<path fill-rule="evenodd" clip-rule="evenodd" d="M7 2C6.44772 2 6 2.44772 6 3H12C12 2.44772 11.5523 2 11 2H7ZM13.9311 5H4.06889L4.87332 17.0665C4.90834 17.5918 5.34464 18 5.87111 18H12.1289C12.6554 18 13.0917 17.5918 13.1267 17.0665L13.9311 5ZM4 3H1C0.447715 3 0 3.44772 0 4C0 4.55228 0.447715 5 1 5H2.06445L2.87775 17.1996C2.98281 18.7754 4.29171 20 5.87111 20H12.1289C13.7083 20 15.0172 18.7754 15.1222 17.1996L15.9356 5H17C17.5523 5 18 4.55228 18 4C18 3.44772 17.5523 3 17 3H14C14 1.34315 12.6569 0 11 0H7C5.34315 0 4 1.34315 4 3Z" transform="matrix(1.8,0,0,1.8,0,0)" />
</svg>
