<svg width="36" height="36" xmlns="http://www.w3.org/2000/svg">
 <path fill="#9E9E9E" d="m11.94512,18c0,1.67205 -1.35543,3.02744 -3.02744,3.02744c-1.67201,0 -3.02744,-1.35538 -3.02744,-3.02744c0,-1.67205 1.35543,-3.02744 3.02744,-3.02744c1.67201,0 3.02744,1.35538 3.02744,3.02744zm6.05488,3.02744c1.67205,0 3.02744,-1.35538 3.02744,-3.02744c0,-1.67205 -1.35538,-3.02744 -3.02744,-3.02744c-1.67205,0 -3.02744,1.35538 -3.02744,3.02744c0,1.67205 1.35538,3.02744 3.02744,3.02744zm9.08231,0c1.67205,0 3.02744,-1.35538 3.02744,-3.02744c0,-1.67205 -1.35538,-3.02744 -3.02744,-3.02744c-1.67205,0 -3.02744,1.35538 -3.02744,3.02744c0,1.67205 1.35538,3.02744 3.02744,3.02744z" />
</svg>
