<svg width="40" height="40" viewBox="0 0 40 40" xmlns="http://www.w3.org/2000/svg">
  <path fill-rule="evenodd" clip-rule="evenodd" d="M30.6299 17.8779C31.2041 17.0394 31.4912 15.7474 31.4912 14.002C31.4912 12.3158 31.195 11.0352 30.6025 10.1602C30.0146 9.28516 29.1442 8.84766 27.9912 8.84766C26.8063 8.84766 25.929 9.26693 25.3594 10.1055C24.7897 10.9395 24.5049 12.2383 24.5049 14.002C24.5049 15.6927 24.7965 16.971 25.3799 17.8369C25.9678 18.7028 26.8382 19.1357 27.9912 19.1357C29.1807 19.1357 30.0602 18.7165 30.6299 17.8779ZM26.918 16.6406C26.7083 16.1074 26.6035 15.2279 26.6035 14.002C26.6035 12.776 26.7106 11.8965 26.9248 11.3633C27.139 10.8255 27.4945 10.5566 27.9912 10.5566C28.4788 10.5566 28.832 10.8255 29.0508 11.3633C29.2741 11.8965 29.3857 12.776 29.3857 14.002C29.3857 15.2142 29.2764 16.0892 29.0576 16.627C28.8389 17.1647 28.4834 17.4336 27.9912 17.4336C27.4899 17.4336 27.1322 17.1693 26.918 16.6406ZM15.1602 11.2402C15.1602 11.8646 14.971 12.3955 14.5928 12.833C14.2145 13.2705 13.6836 13.5713 13 13.7354V13.7764C13.8066 13.8766 14.4173 14.1227 14.832 14.5146C15.2467 14.902 15.4541 15.4261 15.4541 16.0869C15.4541 17.0485 15.1055 17.7982 14.4082 18.3359C13.7109 18.8691 12.7152 19.1357 11.4209 19.1357C10.3363 19.1357 9.37467 18.9557 8.53613 18.5957V16.7979C8.9235 16.9938 9.34961 17.1533 9.81445 17.2764C10.2793 17.3994 10.7396 17.4609 11.1953 17.4609C11.8926 17.4609 12.4076 17.3424 12.7402 17.1055C13.0729 16.8685 13.2393 16.488 13.2393 15.9639C13.2393 15.4945 13.0479 15.1618 12.665 14.9658C12.2822 14.7699 11.6715 14.6719 10.833 14.6719H10.0742V13.0518H10.8467C11.6214 13.0518 12.1865 12.9515 12.542 12.751C12.902 12.5459 13.082 12.1973 13.082 11.7051C13.082 10.9486 12.6081 10.5703 11.6602 10.5703C11.332 10.5703 10.9971 10.625 10.6553 10.7344C10.318 10.8438 9.94206 11.0329 9.52734 11.3018L8.5498 9.8457C9.46126 9.18945 10.5482 8.86133 11.8105 8.86133C12.8451 8.86133 13.6608 9.07096 14.2578 9.49023C14.8594 9.90951 15.1602 10.4928 15.1602 11.2402ZM16.4932 14.7539C16.4932 12.776 16.9102 11.304 17.7441 10.3379C18.5827 9.37174 19.8359 8.88867 21.5039 8.88867C22.0736 8.88867 22.5202 8.92285 22.8438 8.99121V10.6797C22.4382 10.5885 22.0371 10.543 21.6406 10.543C20.916 10.543 20.3236 10.6523 19.8633 10.8711C19.4076 11.0898 19.0658 11.4134 18.8379 11.8418C18.61 12.2702 18.4756 12.8786 18.4346 13.667H18.5234C18.9746 12.8923 19.6969 12.5049 20.6904 12.5049C21.5837 12.5049 22.2832 12.7852 22.7891 13.3457C23.2949 13.9062 23.5479 14.681 23.5479 15.6699C23.5479 16.7363 23.2471 17.5817 22.6455 18.2061C22.0439 18.8258 21.21 19.1357 20.1436 19.1357C19.4053 19.1357 18.7604 18.9648 18.209 18.623C17.6621 18.2812 17.2383 17.7822 16.9375 17.126C16.6413 16.4697 16.4932 15.679 16.4932 14.7539ZM20.1025 17.4473C20.5537 17.4473 20.9001 17.2969 21.1416 16.9961C21.3831 16.6908 21.5039 16.2578 21.5039 15.6973C21.5039 15.2096 21.39 14.8268 21.1621 14.5488C20.9388 14.2663 20.5993 14.125 20.1436 14.125C19.7152 14.125 19.3483 14.264 19.043 14.542C18.7422 14.82 18.5918 15.1436 18.5918 15.5127C18.5918 16.055 18.7331 16.513 19.0156 16.8867C19.3027 17.2604 19.665 17.4473 20.1025 17.4473ZM35.0256 14.3057C34.5558 14.0154 33.9396 14.1609 33.6493 14.6307C33.359 15.1006 33.5045 15.7168 33.9744 16.0071C35.129 16.7206 35.8757 17.4576 36.3364 18.2063C36.7918 18.9464 37 19.7498 37 20.6564C37 22.3611 35.7489 24.1362 33.1873 25.6357C30.6608 27.1145 27.0642 28.1875 22.9164 28.5354C22.3661 28.5816 21.9573 29.0652 22.0035 29.6155C22.0497 30.1659 22.5332 30.5746 23.0836 30.5284C27.4489 30.1623 31.3523 29.0272 34.1976 27.3617C37.0076 25.7168 39 23.4111 39 20.6564C39 19.4197 38.709 18.2459 38.0398 17.1582C37.3759 16.0793 36.3726 15.1379 35.0256 14.3057ZM6.02565 16.3497C6.49548 16.0594 6.64101 15.4432 6.3507 14.9734C6.0604 14.5036 5.44419 14.358 4.97435 14.6483C3.66371 15.4582 2.65775 16.3004 1.98457 17.2919C1.29515 18.3073 1 19.4121 1 20.6564C1 23.4111 2.99235 25.7168 5.8024 27.3617C8.13368 28.7263 11.1753 29.7348 14.5993 30.2561L12.8534 31.7363C12.4321 32.0934 12.3801 32.7244 12.7372 33.1457C13.0943 33.567 13.7254 33.619 14.1466 33.2618L17.6467 30.2947C17.8491 30.1231 17.975 29.8781 17.9967 29.6136C18.0183 29.3492 17.934 29.0869 17.7623 28.8847L14.7623 25.3518C14.4048 24.9308 13.7737 24.8793 13.3527 25.2368C12.9317 25.5943 12.8803 26.2253 13.2377 26.6463L14.5814 28.2287C11.4916 27.7255 8.81581 26.8082 6.81275 25.6357C4.25108 24.1362 3 22.3611 3 20.6564C3 19.7574 3.20405 19.0563 3.63924 18.4153C4.09065 17.7504 4.83469 17.0856 6.02565 16.3497Z" />
</svg>
