<svg width="16" height="16" viewBox="0 0 16 16" fill="none" xmlns="http://www.w3.org/2000/svg">
<g clip-path="url(#clip0)">
<path fill-rule="evenodd" clip-rule="evenodd" d="M4 1C4 0.447715 4.44772 0 5 0H11C11.3318 0 11.642 0.164599 11.8281 0.439371C12.0141 0.714144 12.0517 1.0633 11.9285 1.37139L9.92848 6.37139C9.72336 6.88417 9.14139 7.13359 8.62861 6.92848C8.11583 6.72336 7.86641 6.14139 8.07152 5.62861L9.22023 2.75684C7.2566 3.87987 6.00013 5.83881 6.00013 8C6.00013 10.8289 8.1529 13.3113 11.2265 14.026C11.7644 14.1511 12.0991 14.6886 11.974 15.2265C11.8489 15.7644 11.3114 16.0991 10.7735 15.974C6.94634 15.084 4.00013 11.9068 4.00013 8C4.00013 5.60695 5.10557 3.4876 6.84178 2H5C4.44772 2 4 1.55228 4 1Z" fill="#C2C2C2"/>
</g>
<defs>
<clipPath id="clip0">
<rect width="16" height="16" fill="white"/>
</clipPath>
</defs>
</svg>
