<svg width="16" height="16" viewBox="0 0 16 16" fill="none" xmlns="http://www.w3.org/2000/svg">
<g clip-path="url(#clip0)">
<path fill-rule="evenodd" clip-rule="evenodd" d="M12 1C12 0.447715 11.5523 0 11 0H5C4.66818 0 4.35796 0.164599 4.17193 0.439371C3.9859 0.714144 3.94829 1.0633 4.07152 1.37139L6.07152 6.37139C6.27664 6.88417 6.85861 7.13359 7.37139 6.92848C7.88417 6.72336 8.13359 6.14139 7.92848 5.62861L6.77977 2.75684C8.7434 3.87987 9.99987 5.83881 9.99987 8C9.99987 10.8289 7.8471 13.3113 4.7735 14.026C4.23557 14.1511 3.9009 14.6886 4.02599 15.2265C4.15108 15.7644 4.68857 16.0991 5.2265 15.974C9.05366 15.084 11.9999 11.9068 11.9999 8C11.9999 5.60695 10.8944 3.4876 9.15822 2H11C11.5523 2 12 1.55228 12 1Z" fill="#C2C2C2"/>
</g>
<defs>
<clipPath id="clip0">
<rect width="16" height="16" fill="white"/>
</clipPath>
</defs>
</svg>
